<svg width="20" height="21" viewBox="0 0 20 21" fill="none" xmlns="http://www.w3.org/2000/svg">
<path d="M18.3327 12.75V7.74996C18.3327 3.58329 16.666 1.91663 12.4993 1.91663H7.49935C3.33268 1.91663 1.66602 3.58329 1.66602 7.74996V12.75C1.66602 16.9166 3.33268 18.5833 7.49935 18.5833H12.4993C16.666 18.5833 18.3327 16.9166 18.3327 12.75Z" stroke="#CC0EF1" stroke-width="1.5" stroke-linecap="round" stroke-linejoin="round"/>
<path d="M8.01666 14.6667C8.99237 14.6667 9.78333 13.8758 9.78333 12.9001C9.78333 11.9244 8.99237 11.1334 8.01666 11.1334C7.04096 11.1334 6.25 11.9244 6.25 12.9001C6.25 13.8758 7.04096 14.6667 8.01666 14.6667Z" stroke="#CC0EF1" stroke-width="1.5" stroke-linecap="round" stroke-linejoin="round"/>
<path d="M9.7832 12.9001V6.7251" stroke="#CC0EF1" stroke-width="1.5" stroke-linecap="round" stroke-linejoin="round"/>
<path d="M10.9415 5.89175L12.8915 6.54172C13.3665 6.70005 13.7499 7.23338 13.7499 7.73338V8.25004C13.7499 8.92504 13.2249 9.30004 12.5915 9.08338L10.6416 8.4334C10.1666 8.27507 9.7832 7.74174 9.7832 7.24174V6.72508C9.7832 6.05841 10.2999 5.67508 10.9415 5.89175Z" stroke="#CC0EF1" stroke-width="1.5" stroke-linecap="round" stroke-linejoin="round"/>
</svg>
