<svg width="20" height="20" viewBox="0 0 20 20" fill="none" xmlns="http://www.w3.org/2000/svg">
<path d="M10.3077 1.7917L17.8077 4.79168C18.0993 4.90835 18.3327 5.25834 18.3327 5.56667V8.33335C18.3327 8.79168 17.9577 9.16668 17.4993 9.16668H2.49935C2.04102 9.16668 1.66602 8.79168 1.66602 8.33335V5.56667C1.66602 5.25834 1.89935 4.90835 2.19102 4.79168L9.69102 1.7917C9.85769 1.72503 10.141 1.72503 10.3077 1.7917Z" stroke="#CC0EF1" stroke-width="1.5" stroke-miterlimit="10" stroke-linecap="round" stroke-linejoin="round"/>
<path d="M18.3327 18.3333H1.66602V15.8333C1.66602 15.375 2.04102 15 2.49935 15H17.4993C17.9577 15 18.3327 15.375 18.3327 15.8333V18.3333Z" stroke="#CC0EF1" stroke-width="1.5" stroke-miterlimit="10" stroke-linecap="round" stroke-linejoin="round"/>
<path d="M3.33398 15V9.16663" stroke="#CC0EF1" stroke-width="1.5" stroke-miterlimit="10" stroke-linecap="round" stroke-linejoin="round"/>
<path d="M6.66602 15V9.16663" stroke="#CC0EF1" stroke-width="1.5" stroke-miterlimit="10" stroke-linecap="round" stroke-linejoin="round"/>
<path d="M10 15V9.16663" stroke="#CC0EF1" stroke-width="1.5" stroke-miterlimit="10" stroke-linecap="round" stroke-linejoin="round"/>
<path d="M13.334 15V9.16663" stroke="#CC0EF1" stroke-width="1.5" stroke-miterlimit="10" stroke-linecap="round" stroke-linejoin="round"/>
<path d="M16.666 15V9.16663" stroke="#CC0EF1" stroke-width="1.5" stroke-miterlimit="10" stroke-linecap="round" stroke-linejoin="round"/>
<path d="M0.833984 18.3334H19.1673" stroke="#CC0EF1" stroke-width="1.5" stroke-miterlimit="10" stroke-linecap="round" stroke-linejoin="round"/>
<path d="M10 7.08337C10.6904 7.08337 11.25 6.52373 11.25 5.83337C11.25 5.14302 10.6904 4.58337 10 4.58337C9.30964 4.58337 8.75 5.14302 8.75 5.83337C8.75 6.52373 9.30964 7.08337 10 7.08337Z" stroke="#CC0EF1" stroke-width="1.5" stroke-miterlimit="10" stroke-linecap="round" stroke-linejoin="round"/>
</svg>
