<svg width="28" height="24" viewBox="0 0 28 24" fill="none" xmlns="http://www.w3.org/2000/svg">
<path d="M18.1767 11.9999C18.1767 13.9799 16.31 15.5799 14 15.5799C11.69 15.5799 9.82336 13.9799 9.82336 11.9999C9.82336 10.0199 11.69 8.41992 14 8.41992C16.31 8.41992 18.1767 10.0199 18.1767 11.9999Z" stroke="white" stroke-width="1.5" stroke-linecap="round" stroke-linejoin="round"/>
<path d="M14 20.27C18.1183 20.27 21.9567 18.19 24.6283 14.59C25.6783 13.18 25.6783 10.81 24.6283 9.39997C21.9567 5.79997 18.1183 3.71997 14 3.71997C9.88167 3.71997 6.04333 5.79997 3.37167 9.39997C2.32167 10.81 2.32167 13.18 3.37167 14.59C6.04333 18.19 9.88167 20.27 14 20.27Z" stroke="white" stroke-width="1.5" stroke-linecap="round" stroke-linejoin="round"/>
</svg>
