<svg width="319" height="374" viewBox="0 0 319 374" fill="none" xmlns="http://www.w3.org/2000/svg">
<g clip-path="url(#clip0_1135_9038)">
<path d="M319 319.246C285.183 353.074 238.47 373.999 186.876 373.999C135.272 373.999 88.5536 353.067 54.7357 319.228C20.9165 285.388 0 238.637 0 187C0 135.363 20.9165 88.61 54.7357 54.7706C88.4617 21.0203 135.024 0.113483 186.462 0.00109863V18.7702C141.869 18.8816 99.5347 36.484 67.9995 68.0421C36.3642 99.6982 18.7581 142.224 18.7581 186.999C18.7581 231.773 36.3642 274.299 67.9995 305.955C99.6338 337.611 142.131 355.229 186.876 355.229C231.612 355.229 274.099 337.62 305.732 305.978L319 319.246V319.246Z" fill="#CC0EF1"/>
<path fill-rule="evenodd" clip-rule="evenodd" d="M186.806 74.8073C217.8 74.8073 245.855 87.3908 266.151 107.73L252.932 120.948C236.019 103.996 212.637 93.5069 186.806 93.5069C135.201 93.5069 93.367 135.369 93.367 187.008C93.367 238.647 135.201 280.509 186.806 280.509C212.613 280.509 235.977 270.04 252.886 253.115L266.095 266.343C245.804 286.649 217.771 299.209 186.806 299.209C124.88 299.209 74.6797 248.975 74.6797 187.008C74.6797 125.041 124.88 74.8076 186.806 74.8076V74.8073Z" fill="#0082FE"/>
<path d="M233.567 0.000854492H214.879V18.7009H233.567V0.000854492Z" fill="#CC0EF1"/>
</g>
<defs>
<clipPath id="clip0_1135_9038">
<rect width="319" height="374" fill="white"/>
</clipPath>
</defs>
</svg>
