<svg width="771" height="161" viewBox="0 0 771 161" fill="none" xmlns="http://www.w3.org/2000/svg">
<path fill-rule="evenodd" clip-rule="evenodd" d="M196.717 80.5209H204.914H282.786V80.5219C303.158 80.5219 319.671 64.3082 319.671 44.3068C319.671 24.3064 303.158 8.09271 282.786 8.09271V8.09171H237.702V0.0441895H282.786V0.0446943C307.685 0.0446943 327.869 19.8613 327.869 44.3068C327.869 68.309 308.411 87.847 284.137 88.5482V88.5694H282.786H282.786V88.5689H204.914V161H196.717V88.5689V80.5209Z" fill="#0082FE"/>
<path d="M139.922 137.391C125.089 151.949 104.6 160.955 81.969 160.955C59.3344 160.955 38.8424 151.946 24.0085 137.383C9.17469 122.819 0 102.7 0 80.4772C0 58.255 9.17469 38.134 24.0085 23.5711C38.8018 9.04607 59.2254 0.0484638 81.787 0V8.07781C62.2278 8.12577 43.6583 15.7013 29.8261 29.2822C15.9497 42.9061 8.22755 61.2068 8.22755 80.4767C8.22755 99.7451 15.9502 118.047 29.8261 131.67C43.702 145.294 62.3424 152.876 81.9685 152.876C101.591 152.876 120.227 145.298 134.102 131.68L139.922 137.39L139.922 137.391ZM94.253 0.0439203H102.45V8.09194H94.253V0.0439203Z" fill="#CC0EF1"/>
<path d="M319.736 0.043457C342.37 0.043457 362.863 9.05167 377.697 23.615C392.531 38.1789 401.706 58.2985 401.706 80.5217C401.706 102.744 392.531 122.864 377.697 137.428C362.863 151.992 342.371 161 319.736 161C297.101 161 276.608 151.992 261.774 137.428C246.941 122.864 237.766 102.745 237.766 80.5217C237.766 58.299 246.941 38.1789 261.774 23.615C276.608 9.05116 297.101 0.043457 319.736 0.043457ZM319.736 8.09148C300.096 8.09148 281.456 15.673 267.571 29.3055C253.685 42.9385 245.963 61.2386 245.963 80.5211C245.963 99.8037 253.685 118.104 267.571 131.737C281.456 145.37 300.096 152.951 319.736 152.951C339.376 152.951 358.016 145.369 371.901 131.737C385.787 118.104 393.509 99.8037 393.509 80.5211C393.509 61.2391 385.786 42.938 371.901 29.3055C358.016 15.6725 339.376 8.09148 319.736 8.09148Z" fill="#CC0EF1"/>
<path d="M368.852 160.999V8.0915H368.852V0.0429688H368.852H377.049H475.413V8.0915H377.049V160.999H368.852Z" fill="#0082FE"/>
<path d="M639.354 88.5694H557.384V161H549.188V88.5694V80.5214V0.0441895H557.384V80.5214H639.354V0.0441895H647.551V80.5214V88.5694V161H639.354V88.5694Z" fill="#0082FE"/>
<path d="M516.399 160.999V15.1904L434.429 160.999H426.232V24.1865H434.429V144.344L515.552 0.0429688H524.595V0.0439784V0.609894V160.999H516.399Z" fill="#CC0EF1"/>
<path fill-rule="evenodd" clip-rule="evenodd" d="M81.9395 32.1924C95.5342 32.1924 107.84 37.6082 116.742 46.3615L110.943 52.0504C103.525 44.7551 93.2692 40.2409 81.939 40.2409C59.3039 40.2409 40.954 58.2568 40.954 80.48C40.954 102.703 59.3039 120.719 81.939 120.719C93.2589 120.719 103.506 116.213 110.923 108.93L116.717 114.623C107.817 123.361 95.5214 128.767 81.9395 128.767C54.7775 128.767 32.7578 107.148 32.7578 80.4805C32.7578 53.8123 54.7775 32.1934 81.9395 32.1934V32.1924Z" fill="#0082FE"/>
<path d="M688.535 161C665.9 161 645.406 151.992 630.573 137.428C615.74 122.865 606.564 102.745 606.564 80.5217C606.564 58.299 615.739 38.1789 630.573 23.615C645.406 9.05167 665.899 0.043457 688.534 0.043457V8.09148C668.895 8.09148 650.254 15.6735 636.369 29.3055C622.483 42.9385 614.762 61.2386 614.762 80.5211C614.762 99.8032 622.484 118.105 636.369 131.737C650.255 145.37 668.895 152.951 688.535 152.951C708.174 152.951 726.814 145.369 740.7 131.737C754.585 118.104 762.307 99.8037 762.307 80.5211C762.307 61.2386 754.585 42.938 740.7 29.3055C735.158 23.8649 728.859 19.3896 722.042 15.9739L725.764 8.8038C733.457 12.6612 740.447 17.6757 746.496 23.6145C761.33 38.1784 770.505 58.298 770.505 80.5211C770.505 102.744 761.329 122.864 746.496 137.428C731.662 151.992 711.17 160.999 688.535 160.999V161ZM702.803 1.17781L710.79 2.98864L708.945 10.8297L700.959 9.01936L702.803 1.17781Z" fill="#CC0EF1"/>
<path d="M221.308 8.09171H172.126V161H163.928V8.09171H114.746V0.0441895H163.928H172.126H221.308V8.09171Z" fill="#0082FE"/>
</svg>
