<svg width="149" height="45" viewBox="0 0 149 45" fill="none" xmlns="http://www.w3.org/2000/svg">
<g clip-path="url(#clip0_1_702)">
<path d="M5.37373 40.8417H4.04967V43.5842H3.16083V37.3515H4.04967V40.0583H5.39183L7.38697 37.3515H8.35735L6.09015 40.3699L8.46623 43.5843H7.43241L5.37373 40.8418V40.8417ZM17.4235 37.3514L14.6032 42.4889C14.3795 42.8986 14.1165 43.2043 13.8142 43.406C13.5118 43.6078 13.1823 43.7087 12.8256 43.7087C12.5475 43.7087 12.2634 43.6465 11.9732 43.5218L12.209 42.8094C12.4327 42.8866 12.6322 42.9252 12.8076 42.9252C13.2066 42.9252 13.5362 42.7175 13.7961 42.3019L13.9413 42.0793L11.3838 37.3513H12.3542L14.4128 41.3047L16.5258 37.3513H17.4236L17.4235 37.3514ZM26.263 37.3514V43.5841H25.3743V38.126H22.5629L22.4994 39.9513C22.4692 40.812 22.3982 41.5096 22.2864 42.0437C22.1745 42.5779 21.9976 42.9801 21.7558 43.2501C21.5138 43.5202 21.1874 43.6553 20.7763 43.6553C20.5889 43.6553 20.3985 43.6315 20.205 43.5841L20.2684 42.7916C20.3652 42.8154 20.4619 42.8273 20.5586 42.8273C20.8186 42.8273 21.0272 42.7249 21.1844 42.5201C21.3416 42.3153 21.4595 42.008 21.5381 41.5986C21.6167 41.189 21.6681 40.6488 21.6922 39.978L21.792 37.3514H26.2629H26.263ZM33.8146 39.5239C34.5703 39.5239 35.1492 39.69 35.5513 40.0226C35.9534 40.355 36.1544 40.8447 36.1544 41.4917C36.1544 42.1743 35.9382 42.6938 35.506 43.0499C35.0737 43.406 34.4556 43.5841 33.6515 43.5841H31.0305V37.3514H31.9284V39.5239H33.8147H33.8146ZM33.6151 42.8806C34.1412 42.8806 34.5447 42.7634 34.8259 42.529C35.107 42.2945 35.2476 41.9546 35.2476 41.5096C35.2476 40.6548 34.7035 40.2274 33.6152 40.2274H31.9284V42.8806H33.6152H33.6151ZM44.0326 38.1259H41.8559V43.584H40.9672V38.1259H38.7998V37.3513H44.0326V38.1259ZM52.8538 37.3513L50.0335 42.4888C49.8098 42.8985 49.5468 43.2042 49.2445 43.4059C48.9421 43.6077 48.6126 43.7087 48.2559 43.7087C47.9778 43.7087 47.6937 43.6464 47.4035 43.5217L47.6393 42.8093C47.8631 42.8865 48.0625 42.9251 48.2379 42.9251C48.637 42.9251 48.9665 42.7174 49.2264 42.3018L49.3716 42.0792L46.8141 37.3512H47.7845L49.8431 41.3046L51.9562 37.3512H52.8539L52.8538 37.3513ZM59.0542 37.3513C59.8766 37.3513 60.5234 37.5443 60.995 37.9301C61.4665 38.3159 61.7024 38.8471 61.7024 39.5238C61.7024 40.2005 61.4665 40.7317 60.995 41.1175C60.5234 41.5034 59.8765 41.6963 59.0542 41.6963H57.4853V43.5839H56.5783V37.3512H59.0542V37.3513ZM59.027 40.9218C59.6013 40.9218 60.0397 40.8015 60.342 40.5611C60.6443 40.3207 60.7954 39.975 60.7954 39.5239C60.7954 39.0728 60.6443 38.727 60.342 38.4866C60.0397 38.2462 59.6014 38.126 59.027 38.126H57.4853V40.9219H59.027V40.9218ZM71.2129 37.3513V43.584H70.306V40.806H66.6603V43.584H65.7533V37.3513H66.6603V40.0313H70.306V37.3513H71.2129ZM78.7645 39.5238C79.5202 39.5238 80.0992 39.69 80.5013 40.0225C80.9033 40.3549 81.1043 40.8446 81.1043 41.4916C81.1043 42.1742 80.8882 42.6937 80.4559 43.0498C80.0236 43.4059 79.4055 43.584 78.6014 43.584H75.9804V37.3513H76.8783V39.5238H78.7646H78.7645ZM78.565 42.8805C79.0911 42.8805 79.4946 42.7633 79.7758 42.5289C80.0569 42.2944 80.1975 41.9545 80.1975 41.5095C80.1975 40.6547 79.6534 40.2273 78.5651 40.2273H76.8783V42.8805H78.5651H78.565ZM82.111 37.3512H83.0088V43.5839H82.111V37.3512ZM87.7762 37.3512H88.6741V42.1593L92.4287 37.3512H93.263V43.5839H92.3743V38.7847L88.6106 43.5839H87.7762V37.3512ZM90.506 36.915C90.0102 36.915 89.6278 36.8095 89.3588 36.5989C89.0898 36.3881 88.9522 36.0868 88.9462 35.6951H89.59C89.5961 35.9266 89.6792 36.1062 89.8394 36.2337C89.9996 36.3614 90.2218 36.4251 90.5059 36.4251C90.778 36.4251 90.9971 36.3614 91.1634 36.2337C91.3296 36.1061 91.4157 35.9265 91.4218 35.6951H92.0567C92.0506 36.0809 91.9131 36.3807 91.644 36.5944C91.3751 36.8081 90.9956 36.915 90.5059 36.915H90.506ZM109.817 42.8093V44.9996H108.973V43.584H103.505V37.3513H104.403V42.8093H107.94V37.3513H108.838V42.8093H109.817H109.817ZM118.42 42.8093V43.584H113.813V37.3513H118.294V38.1259H114.72V40.0402H117.904V40.7971H114.72V42.8093H118.42H118.42ZM128.094 37.3513V43.584H127.187V40.806H123.542V43.584H122.635V37.3513H123.542V40.0313H127.187V37.3513H128.094ZM137.224 38.1259H135.047V43.584H134.159V38.1259H131.991V37.3513H137.224V38.1259ZM143.597 37.3513C144.419 37.3513 145.066 37.5443 145.537 37.9301C146.009 38.3159 146.245 38.8471 146.245 39.5238C146.245 40.2005 146.009 40.7317 145.537 41.1175C145.066 41.5034 144.419 41.6963 143.597 41.6963H142.028V43.5839H141.121V37.3512H143.597V37.3513ZM143.569 40.9218C144.144 40.9218 144.582 40.8015 144.884 40.5611C145.187 40.3207 145.338 39.975 145.338 39.5239C145.338 39.0728 145.187 38.727 144.884 38.4866C144.582 38.2462 144.144 38.126 143.569 38.126H142.028V40.9219H143.569V40.9218Z" fill="black"/>
<path fill-rule="evenodd" clip-rule="evenodd" d="M38.0408 15.5709H39.6259H54.6848V15.5711C58.6243 15.5711 61.8177 12.4357 61.8177 8.5678C61.8177 4.70012 58.6243 1.56472 54.6848 1.56472V1.56453H45.9665V0.00830078H54.6848V0.00839841C59.4998 0.00839841 63.403 3.84054 63.403 8.5678C63.403 13.2093 59.6401 16.9876 54.946 17.1232V17.1273H54.6849H54.6848V17.1272H39.6259V31.1339H38.0408V17.1272V15.5709Z" fill="#0082FE"/>
<path d="M27.058 26.5684C24.1896 29.3837 20.2274 31.1252 15.851 31.1252C11.474 31.1252 7.51122 29.3831 4.64265 26.5668C1.77408 23.7506 -0.00012207 19.8598 -0.00012207 15.5624C-0.00012207 11.2651 1.77408 7.3741 4.64265 4.55793C7.50336 1.74908 11.4529 0.00912779 15.8158 -0.000244141V1.56184C12.0335 1.57112 8.44252 3.03607 5.76764 5.66235C3.08422 8.29694 1.59092 11.8359 1.59092 15.5623C1.59092 19.2885 3.08432 22.8277 5.76764 25.4621C8.45097 28.0967 12.0556 29.5628 15.8509 29.5628C19.6454 29.5628 23.2493 28.0974 25.9325 25.4641L27.0579 26.5683L27.058 26.5684ZM18.2265 0.00824917H19.8117V1.56457H18.2265V0.00824917Z" fill="#CC0EF1"/>
<path d="M61.8302 0.00830078C66.2073 0.00830078 70.1703 1.75031 73.0388 4.56657C75.9073 7.38293 77.6816 11.2737 77.6816 15.5712C77.6816 19.8686 75.9074 23.7594 73.0388 26.5758C70.1703 29.392 66.2074 31.134 61.8302 31.134C57.4532 31.134 53.4902 29.392 50.6217 26.5758C47.7532 23.7594 45.9789 19.8687 45.9789 15.5712C45.9789 11.2737 47.7532 7.38293 50.6217 4.56657C53.4902 1.75021 57.4531 0.00830078 61.8302 0.00830078ZM61.8302 1.56463C58.0324 1.56463 54.4277 3.03075 51.7426 5.66699C49.0575 8.30334 47.5642 11.8422 47.5642 15.5711C47.5642 19.2999 49.0575 22.8389 51.7426 25.4751C54.4278 28.1115 58.0323 29.5776 61.8302 29.5776C65.6282 29.5776 69.2328 28.1113 71.9179 25.4751C74.6032 22.8388 76.0964 19.2999 76.0964 15.5711C76.0964 11.8423 74.603 8.30324 71.9179 5.66699C69.2328 3.03065 65.6282 1.56463 61.8302 1.56463Z" fill="#CC0EF1"/>
<path d="M71.3286 31.1338V1.56448H71.3285V0.00805664H71.3286H72.9138H91.9354V1.56448H72.9138V31.1338H71.3286Z" fill="#0082FE"/>
<path d="M123.638 17.1273H107.787V31.1338H106.202V17.1273V15.571V0.00830078H107.787V15.571H123.638V0.00830078H125.223V15.571V17.1273V31.1338H123.638V17.1273Z" fill="#0082FE"/>
<path d="M99.861 31.1338V2.93727L84.0097 31.1338H82.4246V4.67694H84.0097V27.9131L99.6972 0.00805664H101.446V0.00825189V0.117689V31.1338H99.861Z" fill="#CC0EF1"/>
<path fill-rule="evenodd" clip-rule="evenodd" d="M15.8452 6.2251C18.4742 6.2251 20.8538 7.27241 22.5753 8.96512L21.454 10.0652C20.0195 8.65448 18.0362 7.78152 15.8451 7.78152C11.468 7.78152 7.91945 11.2654 7.91945 15.563C7.91945 19.8605 11.468 23.3443 15.8451 23.3443C18.0342 23.3443 20.0158 22.4731 21.4501 21.0646L22.5705 22.1655C20.8494 23.8554 18.4717 24.9007 15.8452 24.9007C10.5926 24.9007 6.33447 20.7201 6.33447 15.5631C6.33447 10.406 10.5926 6.22529 15.8452 6.22529V6.2251Z" fill="#0082FE"/>
<path d="M133.149 31.134C128.772 31.134 124.809 29.392 121.94 26.5758C119.072 23.7595 117.297 19.8687 117.297 15.5712C117.297 11.2737 119.072 7.38293 121.94 4.56657C124.809 1.75031 128.771 0.00830078 133.149 0.00830078V1.56463C129.351 1.56463 125.746 3.03085 123.061 5.66699C120.376 8.30334 118.883 11.8422 118.883 15.5711C118.883 19.2998 120.376 22.839 123.061 25.4752C125.746 28.1115 129.351 29.5775 133.149 29.5775C136.947 29.5775 140.551 28.1114 143.236 25.4752C145.922 22.8389 147.415 19.2999 147.415 15.5711C147.415 11.8422 145.921 8.30324 143.236 5.66699C142.165 4.6149 140.947 3.74946 139.628 3.08893L140.348 1.70237C141.836 2.44832 143.188 3.41802 144.357 4.56647C147.226 7.38284 149 11.2736 149 15.5711C149 19.8685 147.226 23.7594 144.357 26.5757C141.489 29.392 137.526 31.1339 133.149 31.1339V31.134ZM135.908 0.227662L137.452 0.577841L137.096 2.09414L135.551 1.74406L135.908 0.227662Z" fill="#CC0EF1"/>
<path d="M42.7963 1.56453H33.2854V31.1339H31.7003V1.56453H22.1894V0.00830078H31.7003H33.2854H42.7963V1.56453Z" fill="#0082FE"/>
</g>
<defs>
<clipPath id="clip0_1_702">
<rect width="149" height="45" fill="white"/>
</clipPath>
</defs>
</svg>
