<svg width="185" height="56" viewBox="0 0 185 56" fill="none" xmlns="http://www.w3.org/2000/svg">
<path d="M6.67206 50.8254H5.02809V54.2382H3.9245V46.4819H5.02809V49.8504H6.69453L9.17172 46.4819H10.3766L7.56158 50.2382L10.5117 54.2383H9.22814L6.67206 50.8255V50.8254ZM21.6332 46.4818L18.1315 52.8752C17.8537 53.385 17.5271 53.7655 17.1518 54.0165C16.7764 54.2676 16.3672 54.3932 15.9244 54.3932C15.5791 54.3932 15.2264 54.3157 14.866 54.1606L15.1588 53.2741C15.4366 53.3701 15.6843 53.4182 15.9021 53.4182C16.3975 53.4182 16.8066 53.1596 17.1293 52.6425L17.3096 52.3655L14.1343 46.4817H15.3391L17.895 51.4015L20.5186 46.4817H21.6334L21.6332 46.4818ZM32.6084 46.4818V54.2381H31.505V47.4458H28.0143L27.9355 49.7173C27.898 50.7884 27.8098 51.6565 27.671 52.3211C27.5321 52.9859 27.3124 53.4864 27.0122 53.8225C26.7118 54.1586 26.3065 54.3267 25.7961 54.3267C25.5634 54.3267 25.327 54.2971 25.0867 54.2381L25.1655 53.2519C25.2856 53.2815 25.4057 53.2963 25.5257 53.2963C25.8486 53.2963 26.1076 53.1689 26.3028 52.914C26.498 52.6591 26.6443 52.2768 26.7419 51.7673C26.8395 51.2575 26.9033 50.5853 26.9333 49.7506L27.0571 46.4818H32.6083H32.6084ZM41.9846 49.1854C42.9229 49.1854 43.6416 49.3922 44.1409 49.806C44.6401 50.2196 44.8897 50.829 44.8897 51.6342C44.8897 52.4837 44.6213 53.1301 44.0846 53.5733C43.5478 54.0165 42.7804 54.2381 41.782 54.2381H38.5278V46.4818H39.6426V49.1854H41.9847H41.9846ZM41.7368 53.3627C42.39 53.3627 42.891 53.2167 43.2402 52.9251C43.5892 52.6332 43.7637 52.2103 43.7637 51.6565C43.7637 50.5927 43.0882 50.0609 41.7369 50.0609H39.6426V53.3627H41.7369H41.7368ZM54.6713 47.4457H51.9688V54.238H50.8653V47.4457H48.1742V46.4817H54.6713V47.4457ZM65.6239 46.4817L62.1221 52.8751C61.8443 53.3849 61.5178 53.7654 61.1425 54.0164C60.767 54.2675 60.3579 54.3931 59.9151 54.3931C59.5697 54.3931 59.217 54.3156 58.8566 54.1605L59.1495 53.274C59.4273 53.3699 59.6749 53.4181 59.8927 53.4181C60.3881 53.4181 60.7973 53.1595 61.12 52.6424L61.3002 52.3654L58.1249 46.4816H59.3297L61.8857 51.4014L64.5093 46.4816H65.624L65.6239 46.4817ZM73.3224 46.4817C74.3434 46.4817 75.1465 46.7219 75.732 47.202C76.3175 47.6821 76.6103 48.3431 76.6103 49.1853C76.6103 50.0274 76.3175 50.6885 75.732 51.1686C75.1465 51.6488 74.3432 51.8889 73.3224 51.8889H71.3743V54.2379H70.2483V46.4816H73.3224V46.4817ZM73.2885 50.925C74.0016 50.925 74.546 50.7753 74.9213 50.4762C75.2966 50.177 75.4842 49.7468 75.4842 49.1854C75.4842 48.624 75.2966 48.1937 74.9213 47.8946C74.546 47.5954 74.0018 47.4458 73.2885 47.4458H71.3743V50.9251H73.2885V50.925ZM88.4187 46.4817V54.238H87.2927V50.7809H82.7661V54.238H81.64V46.4817H82.7661V49.8169H87.2927V46.4817H88.4187V46.4817ZM97.7949 49.1853C98.7332 49.1853 99.4519 49.3921 99.9512 49.8059C100.45 50.2195 100.7 50.8289 100.7 51.6341C100.7 52.4836 100.432 53.13 99.8949 53.5732C99.3581 54.0164 98.5907 54.238 97.5923 54.238H94.3381V46.4817H95.4529V49.1853H97.795H97.7949ZM97.5471 53.3625C98.2003 53.3625 98.7013 53.2166 99.0505 52.9249C99.3995 52.6331 99.574 52.2102 99.574 51.6564C99.574 50.5926 98.8985 50.0607 97.5472 50.0607H95.4529V53.3625H97.5472H97.5471ZM101.95 46.4816H103.065V54.2379H101.95V46.4816ZM108.984 46.4816H110.099V52.465L114.76 46.4816H115.796V54.2379H114.693V48.2655L110.02 54.2379H108.984V46.4816ZM112.373 45.9388C111.758 45.9388 111.283 45.8076 110.949 45.5454C110.615 45.2831 110.444 44.9082 110.437 44.4207H111.236C111.243 44.7088 111.347 44.9322 111.546 45.0909C111.744 45.2498 112.02 45.3291 112.373 45.3291C112.711 45.3291 112.983 45.2498 113.189 45.0909C113.396 44.9321 113.503 44.7087 113.51 44.4207H114.299C114.291 44.9008 114.12 45.2739 113.786 45.5398C113.452 45.8057 112.981 45.9388 112.373 45.9388H112.373ZM136.35 53.274V55.9997H135.303V54.238H128.513V46.4817H129.628V53.274H134.019V46.4817H135.134V53.274H136.35H136.35ZM147.032 53.274V54.238H141.312V46.4817H146.874V47.4457H142.438V49.828H146.39V50.7699H142.438V53.274H147.032H147.032ZM159.043 46.4817V54.238H157.917V50.7809H153.39V54.238H152.264V46.4817H153.39V49.8169H157.917V46.4817H159.043V46.4817ZM170.379 47.4457H167.676V54.238H166.573V47.4457H163.881V46.4817H170.379V47.4457V47.4457ZM178.291 46.4817C179.312 46.4817 180.115 46.7219 180.701 47.202C181.286 47.6821 181.579 48.3431 181.579 49.1853C181.579 50.0274 181.286 50.6885 180.701 51.1686C180.115 51.6488 179.312 51.8889 178.291 51.8889H176.343V54.2379H175.217V46.4816H178.291V46.4817ZM178.257 50.925C178.97 50.925 179.515 50.7753 179.89 50.4762C180.265 50.177 180.453 49.7468 180.453 49.1854C180.453 48.624 180.265 48.1937 179.89 47.8946C179.515 47.5954 178.97 47.4458 178.257 47.4458H176.343V50.9251H178.257V50.925Z" fill="white"/>
<path fill-rule="evenodd" clip-rule="evenodd" d="M47.2318 19.377H49.2H67.8972V19.3773C72.7885 19.3773 76.7535 15.4754 76.7535 10.6621C76.7535 5.84896 72.7885 1.94714 67.8972 1.94714V1.94689H57.0724V0.0102539H67.8972V0.0103754C73.8756 0.0103754 78.7218 4.77926 78.7218 10.6621C78.7218 16.4382 74.0498 21.14 68.2216 21.3088V21.3139H67.8974H67.8972V21.3138H49.2V38.7444H47.2318V21.3138V19.377V19.377Z" fill="white"/>
<path d="M33.5956 33.0629C30.0341 36.5664 25.1146 38.7336 19.6809 38.7336C14.2462 38.7336 9.32604 36.5657 5.76439 33.061C2.20274 29.5563 -0.00012207 24.7145 -0.00012207 19.3666C-0.00012207 14.0189 2.20274 9.17671 5.76439 5.67215C9.31629 2.1767 14.22 0.0114187 19.6372 -0.000244141V1.94368C14.9409 1.95523 10.4824 3.77827 7.1612 7.04654C3.82943 10.3251 1.97533 14.7292 1.97533 19.3665C1.97533 24.0035 3.82955 28.4079 7.1612 31.6862C10.4928 34.9648 14.9685 36.7893 19.6807 36.7893C24.392 36.7893 28.8666 34.9657 32.198 31.6887L33.5955 33.0628L33.5956 33.0629ZM22.6303 0.0103253H24.5984V1.94709H22.6303V0.0103253Z" fill="white"/>
<path d="M76.7691 0.0102539C82.2037 0.0102539 87.1242 2.17808 90.6858 5.68277C94.2473 9.18758 96.4503 14.0294 96.4503 19.3774C96.4503 24.7253 94.2475 29.5672 90.6858 33.072C87.1242 36.5767 82.2039 38.7445 76.7691 38.7445C71.3345 38.7445 66.4141 36.5767 62.8524 33.072C59.2909 29.5672 57.0879 24.7254 57.0879 19.3774C57.0879 14.0295 59.2909 9.18758 62.8524 5.68277C66.4141 2.17796 71.3344 0.0102539 76.7691 0.0102539V0.0102539ZM76.7691 1.94701C72.0536 1.94701 67.578 3.77152 64.2441 7.05218C60.9103 10.333 59.0562 14.7369 59.0562 19.3773C59.0562 24.0176 60.9103 28.4217 64.2441 31.7023C67.5781 34.9831 72.0535 36.8076 76.7691 36.8076C81.4847 36.8076 85.9602 34.9829 89.2941 31.7023C92.6282 28.4215 94.4822 24.0176 94.4822 19.3773C94.4822 14.737 92.6279 10.3328 89.2941 7.05218C85.9602 3.7714 81.4847 1.94701 76.7691 1.94701V1.94701Z" fill="white"/>
<path d="M88.5623 38.7443V1.94689H88.5622V0.0100098H88.5623H90.5305H114.148V1.94689H90.5305V38.7443H88.5623Z" fill="white"/>
<path d="M153.51 21.3139H133.829V38.7443H131.861V21.3139V19.3771V0.0102539H133.829V19.3771H153.51V0.0102539H155.478V19.3771V21.3139V38.7443H153.51V21.3139Z" fill="white"/>
<path d="M123.988 38.7443V3.65526L104.307 38.7443H102.339V5.82017H104.307V34.7362L123.785 0.0100098H125.956V0.0102527V0.146441V38.7443H123.988Z" fill="white"/>
<path fill-rule="evenodd" clip-rule="evenodd" d="M19.6736 7.74683C22.9377 7.74683 25.8923 9.05015 28.0297 11.1566L26.6375 12.5257C24.8564 10.7701 22.3939 9.68371 19.6735 9.68371C14.2387 9.68371 9.83285 14.0192 9.83285 19.3673C9.83285 24.7153 14.2387 29.0507 19.6735 29.0507C22.3914 29.0507 24.8518 27.9666 26.6327 26.2137L28.0238 27.5837C25.8869 29.6867 22.9346 30.9876 19.6736 30.9876C13.1519 30.9876 7.86493 25.785 7.86493 19.3674C7.86493 12.9497 13.1519 7.74707 19.6736 7.74707V7.74683Z" fill="white"/>
<path d="M165.319 38.7445C159.884 38.7445 154.964 36.5767 151.402 33.072C147.841 29.5673 145.638 24.7254 145.638 19.3774C145.638 14.0295 147.84 9.18758 151.402 5.68277C154.964 2.17808 159.884 0.0102539 165.319 0.0102539V1.94701C160.603 1.94701 156.128 3.77164 152.794 7.05218C149.46 10.333 147.606 14.7369 147.606 19.3773C147.606 24.0175 149.46 28.4218 152.794 31.7025C156.128 34.9831 160.603 36.8075 165.319 36.8075C170.034 36.8075 174.51 34.983 177.844 31.7025C181.178 28.4217 183.032 24.0176 183.032 19.3773C183.032 14.7369 181.178 10.3328 177.844 7.05218C176.513 5.74291 175.001 4.66592 173.364 3.84393L174.258 2.11843C176.105 3.04672 177.783 4.25346 179.236 5.68265C182.797 9.18745 185 14.0292 185 19.3773C185 24.7252 182.797 29.5672 179.236 33.0719C175.674 36.5767 170.754 38.7444 165.319 38.7444V38.7445ZM168.745 0.283237L170.662 0.719015L170.219 2.60597L168.302 2.17031L168.745 0.283237V0.283237Z" fill="white"/>
<path d="M53.1363 1.94689H41.3276V38.7444H39.3594V1.94689H27.5506V0.0102539H39.3594H41.3276H53.1363V1.94689Z" fill="white"/>
</svg>
