<svg width="92" height="36" viewBox="0 0 92 36" fill="none" xmlns="http://www.w3.org/2000/svg">
<g clip-path="url(#clip0_1_435)">
<rect width="91.4195" height="35.3604" transform="translate(0.525452 0.449707)" fill="#010938"/>
<path d="M36.6315 0.48962V18.1685L18.6094 35.8101V18.0902L9.55668 26.9531L0.525452 18.1132L18.5691 0.449673L36.6315 0.48962Z" fill="white"/>
<path d="M40.7653 0.578148H42.2909L44.3334 5.458H44.4133L46.4558 0.578148H47.9813V7.31274H46.7858V2.68611H46.7217L44.8192 7.2927H43.927L42.0245 2.67615H41.9608V7.31274H40.7653V0.578148Z" fill="white"/>
<path d="M54.2336 3.94531C54.2336 3.4353 54.1521 3.00403 53.99 2.65152C53.827 2.30002 53.6035 2.03327 53.3166 1.85229C53.0289 1.67182 52.6994 1.58069 52.325 1.58069C51.9517 1.58069 51.6205 1.67182 51.3338 1.85229C51.0475 2.03327 50.8234 2.30002 50.6604 2.65152C50.499 3.00403 50.4175 3.4353 50.4175 3.94531C50.4175 4.45635 50.499 4.88762 50.6604 5.24001C50.8234 5.5915 51.0475 5.85876 51.3338 6.03923C51.6205 6.21971 51.9517 6.30943 52.325 6.30943C52.6994 6.30943 53.0289 6.21971 53.3166 6.03923C53.6035 5.85876 53.827 5.5915 53.99 5.24001C54.1521 4.88762 54.2336 4.45635 54.2336 3.94531ZM55.4865 3.94531C55.4865 4.67166 55.3479 5.29297 55.0713 5.80848C54.7948 6.32449 54.4185 6.71977 53.9432 6.99405C53.467 7.2682 52.927 7.40527 52.325 7.40527C51.7225 7.40527 51.1841 7.2682 50.7077 6.99251C50.231 6.71734 49.8556 6.32245 49.5791 5.8049C49.3015 5.28889 49.1645 4.66975 49.1645 3.94531C49.1645 3.21986 49.3015 2.59919 49.5791 2.08317C49.8556 1.56716 50.231 1.17176 50.7077 0.897607C51.1841 0.623455 51.7225 0.486252 52.325 0.486252C52.927 0.486252 53.467 0.623455 53.9432 0.897607C54.4185 1.17176 54.7948 1.56716 55.0713 2.08317C55.3479 2.59919 55.4865 3.21986 55.4865 3.94531Z" fill="white"/>
<path d="M62.5588 2.851H61.3022C61.266 2.64909 61.1998 2.46951 61.103 2.31253C61.0079 2.15694 60.8882 2.02331 60.7439 1.91368C60.6018 1.80404 60.4388 1.72172 60.255 1.66544C60.0732 1.60953 59.8771 1.58069 59.6657 1.58069C59.2928 1.58069 58.9603 1.67284 58.6715 1.85637C58.3821 2.03927 58.1569 2.30602 57.9925 2.65752C57.8295 3.01054 57.748 3.43926 57.748 3.94531C57.748 4.46133 57.8295 4.89502 57.995 5.24652C58.1596 5.59801 58.3857 5.86323 58.6734 6.04179C58.9612 6.22124 59.2914 6.30943 59.6631 6.30943C59.8684 6.30943 60.062 6.28352 60.2427 6.22966C60.422 6.17631 60.585 6.09654 60.7292 5.99035C60.8738 5.88569 60.9966 5.75602 61.0959 5.60299C61.1947 5.44945 61.2641 5.27396 61.3022 5.07702L62.5588 5.08302C62.5119 5.40363 62.4101 5.70369 62.2542 5.98435C62.0994 6.26514 61.8951 6.51287 61.6444 6.72576C61.394 6.94018 61.1011 7.10623 60.7648 7.22582C60.4281 7.34554 60.0553 7.40527 59.6453 7.40527C59.0418 7.40527 58.5018 7.2682 58.0271 6.99405C57.5519 6.71977 57.1776 6.32449 56.905 5.80746C56.631 5.28991 56.495 4.66975 56.495 3.94531C56.495 3.21986 56.6325 2.59919 56.9075 2.08317C57.1841 1.56716 57.5586 1.17176 58.0332 0.897607C58.5085 0.623455 59.0458 0.486252 59.6453 0.486252C60.0289 0.486252 60.3848 0.538706 60.714 0.644896C61.0435 0.749553 61.3363 0.904115 61.5951 1.10603C61.8518 1.30896 62.0647 1.55721 62.2317 1.84884C62.3984 2.14201 62.5069 2.47602 62.5588 2.851Z" fill="white"/>
<path d="M40.7653 18.4241V11.6901H43.3453C43.8734 11.6901 44.3181 11.7862 44.6771 11.9792C45.0362 12.1722 45.3082 12.4364 45.4931 12.7729C45.6775 13.11 45.7707 13.4924 45.7707 13.9196C45.7707 14.3508 45.6775 14.7353 45.4921 15.0703C45.3063 15.4058 45.0322 15.6695 44.6696 15.8605C44.3064 16.0524 43.8597 16.1482 43.3285 16.1482H41.6185V15.1466H43.1604C43.4701 15.1466 43.7216 15.0928 43.9193 14.988C44.117 14.8833 44.2631 14.7373 44.3583 14.5543C44.4531 14.3699 44.5015 14.1579 44.5015 13.9196C44.5015 13.6803 44.4531 13.4699 44.3583 13.2879C44.2631 13.1059 44.117 12.9639 43.9177 12.8616C43.7196 12.7604 43.465 12.7096 43.1543 12.7096H42.0118V18.4241H40.7653Z" fill="white"/>
<path d="M47.0177 15.7833H50.6452V16.7638H47.0177V15.7833ZM46.9744 18.4241H45.6435L48.0654 11.6901H49.6051L52.0291 18.4241H50.7003L48.8625 13.0711H48.8075L46.9744 18.4241Z" fill="white"/>
<path d="M55.3377 18.5171C54.8538 18.5171 54.4245 18.4358 54.0501 18.2738C53.6747 18.1102 53.3778 17.8849 53.1613 17.5957C52.9438 17.3065 52.8287 16.9725 52.815 16.5927H54.0781C54.0899 16.7745 54.151 16.9341 54.2625 17.0682C54.375 17.2034 54.5238 17.3075 54.7098 17.3823C54.8957 17.4561 55.1034 17.4935 55.3353 17.4935C55.5808 17.4935 55.7997 17.4521 55.9897 17.3679C56.1802 17.2832 56.3295 17.166 56.4364 17.0138C56.5433 16.8629 56.5969 16.6884 56.5943 16.4915C56.5969 16.287 56.5433 16.1075 56.4329 15.9514C56.3234 15.7959 56.1655 15.6747 55.9576 15.5865C55.7503 15.4992 55.5018 15.4555 55.2105 15.4555H54.6028V14.5146H55.2105C55.4499 14.5146 55.6597 14.4748 55.8405 14.3924C56.0203 14.3118 56.1629 14.1965 56.2648 14.05C56.3677 13.9014 56.4186 13.7294 56.4161 13.535C56.4186 13.3444 56.3753 13.1785 56.2876 13.0363C56.1986 12.8953 56.0738 12.7847 55.9143 12.7059C55.7539 12.6275 55.5664 12.5877 55.3515 12.5877C55.1402 12.5877 54.9455 12.6251 54.7673 12.6999C54.5874 12.7747 54.4439 12.8794 54.3328 13.0164C54.2233 13.1535 54.1663 13.3171 54.1586 13.505H52.9586C52.9678 13.1286 53.0798 12.797 53.2938 12.5104C53.5077 12.2237 53.7944 12.0009 54.1521 11.8398C54.5101 11.6789 54.9125 11.5981 55.3582 11.5981C55.8176 11.5981 56.2164 11.6818 56.5561 11.8499C56.8949 12.0168 57.1571 12.2422 57.343 12.5253C57.529 12.808 57.6222 13.1197 57.6222 13.4626C57.6247 13.8416 57.5111 14.1591 57.2819 14.4164C57.0517 14.6732 56.7507 14.8397 56.3794 14.9194V14.9717C56.8633 15.0381 57.2346 15.2126 57.4934 15.4968C57.7521 15.7799 57.8804 16.1324 57.8779 16.5537C57.8779 16.9301 57.7684 17.2682 57.5509 17.5648C57.3313 17.8609 57.0314 18.0942 56.6504 18.2637C56.2683 18.4323 55.8304 18.5171 55.3377 18.5171Z" fill="white"/>
<path d="M60.3482 17.4051H61.6879C62.1411 17.4051 62.4671 17.3203 62.6668 17.1508C62.868 16.9798 62.9689 16.7619 62.9689 16.4936C62.9689 16.2943 62.9179 16.1147 62.8176 15.9527C62.7167 15.7917 62.5731 15.6646 62.3872 15.5714C62.2007 15.4791 61.9797 15.4318 61.7219 15.4318H60.3482V17.4051ZM60.3482 14.5543H61.5808C61.7964 14.5543 61.9899 14.5154 62.1615 14.4371C62.3347 14.3598 62.4712 14.2486 62.57 14.1055C62.6699 13.9609 62.7193 13.7914 62.7193 13.5936C62.7193 13.3329 62.6266 13.1184 62.4391 12.9489C62.2522 12.7803 61.9757 12.6956 61.6073 12.6956H60.3482V14.5543ZM59.1018 18.4241V11.6901H61.7352C62.2328 11.6901 62.6469 11.7658 62.9764 11.9179C63.3075 12.0699 63.5546 12.2784 63.7192 12.541C63.8841 12.8043 63.9656 13.1025 63.9656 13.436C63.9656 13.7108 63.9121 13.9436 63.8057 14.138C63.6973 14.3325 63.553 14.4895 63.3713 14.6101C63.1904 14.7303 62.9866 14.8171 62.764 14.8699V14.9357C63.0071 14.9482 63.2428 15.0214 63.4665 15.1535C63.6922 15.2871 63.8771 15.4741 64.0196 15.715C64.1633 15.9562 64.2346 16.2469 64.2346 16.5894C64.2346 16.9374 64.148 17.2515 63.9763 17.5282C63.8042 17.8058 63.5444 18.0242 63.1971 18.1837C62.8492 18.3443 62.4121 18.4241 61.8865 18.4241H59.1018Z" fill="white"/>
<path d="M65.3195 11.6901H66.5562V16.2802H66.6199L69.8552 11.6901H70.9732V18.4241H69.7269V13.8379H69.6693L66.4249 18.4241H65.3195V11.6901Z" fill="white"/>
<path d="M72.0234 12.7121V11.6901H77.5132V12.7121H75.3867V18.4241H74.1514V12.7121H72.0234Z" fill="white"/>
<path d="M78.5691 11.6901H79.8053V16.2802H79.869L83.1049 11.6901H84.2229V18.4241H82.976V13.8379H82.919L79.6744 18.4241H78.5691V11.6901Z" fill="white"/>
<path d="M85.5762 18.4241V11.6901H90.0508V12.7121H86.8225V14.5408H89.8191V15.5639H86.8225V17.4011H90.0772V18.4241H85.5762Z" fill="white"/>
<path d="M14.754 26.8739V35.8101H4.43771V26.8739L9.59638 31.9233L14.754 26.8739Z" fill="white"/>
</g>
<defs>
<clipPath id="clip0_1_435">
<rect width="91.4195" height="35.3604" fill="white" transform="translate(0.525452 0.449707)"/>
</clipPath>
</defs>
</svg>
