<svg width="108" height="34" viewBox="0 0 108 34" fill="none" xmlns="http://www.w3.org/2000/svg">
<g clip-path="url(#clip0_1_450)">
<rect width="107.806" height="33.6355" transform="translate(0.19397 0.312256)" fill="#010938"/>
<path d="M48.5049 5.63042V3.87293C48.5049 3.74482 48.5002 3.60623 48.4912 3.45415C48.4818 3.30133 48.4703 3.14625 48.456 2.98818L48.4087 2.45554L51.8367 7.28603C51.9691 7.54074 52.1408 7.65161 52.3886 7.65161H52.6568C52.9043 7.65161 53.0766 7.54074 53.1979 7.30401L56.6033 2.47202L56.5542 3.00991C56.5314 3.26087 56.5177 5.10752 56.5135 5.81171C56.6402 5.70608 56.8141 5.57048 57.0375 5.41766C57.405 5.16595 57.7294 5.04608 57.8947 4.99589V0.312232H56.6074C56.5273 0.312232 56.4583 0.314482 56.4009 0.318977C56.3539 0.322723 56.3127 0.33171 56.2752 0.345943C56.2451 0.35793 56.2169 0.377408 56.1892 0.405875C56.1571 0.438088 56.1254 0.486035 56.0937 0.545967L53.0712 4.79063C53.0031 4.92473 52.9294 5.08205 52.8606 5.24386C52.7907 5.40867 52.7237 5.57948 52.6584 5.75553L52.5245 6.11736L52.387 5.75703C52.3099 5.55251 52.2303 5.35398 52.1497 5.1622L51.9691 4.78388L48.9273 0.563196C48.8841 0.484535 48.8524 0.435845 48.8217 0.402883C48.7969 0.375914 48.7705 0.357181 48.7423 0.345943C48.7052 0.33171 48.6632 0.322723 48.6175 0.318977C48.5585 0.314482 48.49 0.312232 48.4097 0.312232H47.1226V4.97792C47.2796 5.00788 47.5627 5.08204 47.9105 5.26184C48.1615 5.39069 48.3624 5.52554 48.5049 5.63042Z" fill="white"/>
<path d="M57.6786 9.66919L56.5177 10.7585C57.6342 11.8387 59.4192 11.8619 60.5642 10.7884C61.7444 9.68118 61.8035 7.82031 60.6969 6.64115C60.16 6.06955 59.4332 5.74217 58.65 5.7167C57.8563 5.68674 57.1193 5.97366 56.5482 6.51005L56.4746 6.58796L52.622 10.7884L52.4345 11.1735L52.2462 10.7884L48.3136 6.50331C47.7481 5.97291 46.9988 5.68824 46.2182 5.7167C45.4346 5.74217 44.7079 6.06955 44.1712 6.64115C43.065 7.82031 43.1243 9.68118 44.3039 10.7884C45.4489 11.8619 47.2344 11.8372 48.3504 10.7585L47.1896 9.66919C46.6752 10.1119 45.8963 10.1052 45.3905 9.63099C45.1287 9.38527 44.978 9.0519 44.9663 8.69156C44.9551 8.33197 45.0839 7.98961 45.3296 7.72741C45.5758 7.46521 45.9094 7.31463 46.2686 7.30265C46.2801 7.30265 46.2912 7.30189 46.3022 7.30189C46.637 7.30189 46.943 7.41502 47.1908 7.62852L52.1158 13.2224C52.1225 13.2231 52.2811 13.3655 52.4226 13.3655C52.5607 13.3655 52.7362 13.2299 52.7736 13.1924L57.6633 7.64275C57.9297 7.41052 58.261 7.2974 58.5977 7.30265C58.9591 7.31463 59.2927 7.46521 59.5389 7.72741C59.7846 7.98961 59.9134 8.33197 59.902 8.69156C59.8902 9.0519 59.7395 9.38527 59.4777 9.63099C58.9721 10.1059 58.194 10.1127 57.6786 9.66919Z" fill="white"/>
<path d="M8.42884 23.9013C8.37556 23.9058 8.32729 23.9163 8.28383 23.9327C8.24067 23.9485 8.20035 23.9754 8.16355 24.0122C8.12638 24.0496 8.09146 24.0991 8.05849 24.1605L5.42264 29.1033C5.3525 29.2352 5.28681 29.3723 5.22492 29.5139C5.16331 29.6562 5.10365 29.803 5.04592 29.9551C4.97771 29.7791 4.90755 29.609 4.83647 29.445C4.78249 29.3348 4.72954 29.2262 4.67556 29.1161L2.00255 24.1605C1.96956 24.0991 1.93589 24.0496 1.90065 24.0122C1.86572 23.9754 1.82667 23.9485 1.78361 23.9327C1.74044 23.9163 1.69184 23.9058 1.63851 23.9013C1.58523 23.8975 1.52112 23.8953 1.44718 23.8953H0.19397V32.8184H1.65695V27.0544C1.65695 26.9436 1.65279 26.8222 1.64454 26.6903C1.63634 26.5592 1.62619 26.4252 1.61374 26.2896L4.34234 31.3748C4.46988 31.6175 4.66537 31.7388 4.92877 31.7388H5.16331C5.42667 31.7388 5.62228 31.6175 5.74982 31.3748L8.44757 26.3083C8.42277 26.5757 8.41048 26.8244 8.41048 27.0544V32.8184H9.87344V23.8953H8.62016C8.54627 23.8953 8.48219 23.8975 8.42884 23.9013Z" fill="white"/>
<path d="M20.0655 29.6742C19.9336 30.063 19.7467 30.3926 19.5035 30.6615C19.2608 30.9312 18.9656 31.138 18.6178 31.2818C18.27 31.4257 17.8781 31.4976 17.4418 31.4976C17.0056 31.4976 16.6138 31.4257 16.2659 31.2818C15.9182 31.138 15.622 30.9312 15.377 30.6615C15.132 30.3926 14.9438 30.063 14.8122 29.6742C14.6804 29.2854 14.6148 28.8464 14.6148 28.3572C14.6148 27.8672 14.6804 27.4282 14.8122 27.0394C14.9438 26.6506 15.132 26.3202 15.377 26.049C15.622 25.7771 15.9182 25.5696 16.2659 25.4258C16.6138 25.2812 17.0056 25.21 17.4418 25.21C17.8781 25.21 18.27 25.2812 18.6178 25.4258C18.9656 25.5696 19.2608 25.7771 19.5035 26.049C19.7467 26.3202 19.9336 26.6506 20.0655 27.0394C20.1973 27.4282 20.2633 27.8672 20.2633 28.3572C20.2633 28.8464 20.1973 29.2854 20.0655 29.6742ZM21.3927 26.0116C21.2077 25.6745 20.9824 25.3696 20.7167 25.0954C20.4511 24.822 20.1519 24.5897 19.8187 24.3979C19.4851 24.2069 19.1189 24.0586 18.7197 23.9537C18.3205 23.8488 17.8946 23.7964 17.4418 23.7964C16.767 23.7964 16.1517 23.911 15.5963 24.1395C15.0406 24.3672 14.564 24.6849 14.1673 25.0924C13.77 25.4999 13.4621 25.9816 13.2442 26.5397C13.0258 27.0971 12.9169 27.7024 12.9169 28.3572C12.9169 29.0112 13.0258 29.6165 13.2442 30.1738C13.4621 30.732 13.77 31.2144 14.1673 31.6219C14.564 32.0287 15.0406 32.3464 15.5963 32.5749C16.1517 32.8034 16.767 32.918 17.4418 32.918C18.1211 32.918 18.7384 32.8034 19.294 32.5749C19.8495 32.3464 20.3248 32.0287 20.7199 31.6219C21.115 31.2144 21.4207 30.732 21.6365 30.1738C21.8529 29.6165 21.9607 29.0112 21.9607 28.3572C21.9607 27.9212 21.9122 27.5054 21.8157 27.1106C21.719 26.7158 21.5781 26.3495 21.3927 26.0116Z" fill="white"/>
<path d="M30.7755 30.6347C30.724 30.6347 30.6752 30.6467 30.6283 30.67C30.581 30.6939 30.5362 30.7246 30.4935 30.7629C30.3528 30.891 30.2106 30.9988 30.0678 31.0865C29.9243 31.1734 29.7727 31.2453 29.6127 31.3007C29.4525 31.3562 29.2773 31.3966 29.0872 31.4221C28.8971 31.4483 28.6848 31.4611 28.4496 31.4611C28.0568 31.4611 27.6892 31.3869 27.3477 31.2401C27.006 31.0925 26.7093 30.8805 26.4574 30.6025C26.2051 30.3254 26.0054 29.9837 25.8582 29.5777C25.7109 29.1724 25.6373 28.7094 25.6373 28.188C25.6373 27.6719 25.7052 27.2112 25.8424 26.8081C25.9788 26.4043 26.171 26.0627 26.4186 25.7833C26.6665 25.5038 26.9622 25.2903 27.3062 25.1428C27.65 24.9952 28.0292 24.9218 28.4433 24.9218C28.6867 24.9218 28.9015 24.9405 29.0872 24.9757C29.2731 25.0124 29.4363 25.0574 29.5775 25.1105C29.7184 25.1645 29.8422 25.2222 29.9492 25.2866C30.0557 25.351 30.1497 25.4095 30.2309 25.4626C30.3122 25.5166 30.3867 25.5615 30.455 25.5975C30.5235 25.6335 30.5898 25.6522 30.654 25.6522C30.7479 25.6522 30.8215 25.6327 30.8748 25.5937C30.9282 25.5555 30.9719 25.5113 31.0063 25.4597L31.5828 24.6588C31.2153 24.3 30.7701 24.0101 30.2468 23.7883C29.7238 23.5658 29.1246 23.4549 28.4496 23.4549C27.7708 23.4549 27.1514 23.5711 26.5916 23.804C26.032 24.037 25.5507 24.3629 25.147 24.7809C24.7433 25.1989 24.4304 25.6979 24.2086 26.2762C23.9862 26.8553 23.8751 27.4921 23.8751 28.188C23.8751 28.8758 23.9789 29.5095 24.1858 30.0901C24.3933 30.6715 24.691 31.1704 25.0797 31.5892C25.4681 32.0079 25.9372 32.3338 26.4859 32.569C27.0349 32.8043 27.6531 32.9211 28.3408 32.9211C29.1094 32.9211 29.7685 32.7975 30.3176 32.5496C30.8663 32.3023 31.3286 31.9458 31.7044 31.4798L31.0256 30.7441C30.9525 30.6715 30.8694 30.6347 30.7755 30.6347Z" fill="white"/>
<path d="M51.7705 29.5552C51.6337 29.959 51.4398 30.3006 51.1874 30.5801C50.9354 30.8602 50.6289 31.0745 50.268 31.2243C49.907 31.3734 49.5005 31.4483 49.0477 31.4483C48.595 31.4483 48.1879 31.3734 47.8271 31.2243C47.4663 31.0745 47.1587 30.8602 46.9045 30.5801C46.6504 30.3006 46.4548 29.959 46.3184 29.5552C46.1815 29.1522 46.113 28.696 46.113 28.188C46.113 27.6801 46.1815 27.2239 46.3184 26.8208C46.4548 26.4171 46.6504 26.0747 46.9045 25.793C47.1587 25.5113 47.4663 25.2956 47.8271 25.1458C48.1879 24.9967 48.595 24.9218 49.0477 24.9218C49.5005 24.9218 49.907 24.9967 50.268 25.1458C50.6289 25.2956 50.9354 25.5113 51.1874 25.793C51.4398 26.0747 51.6337 26.4171 51.7705 26.8208C51.9072 27.2239 51.9754 27.6801 51.9754 28.188C51.9754 28.696 51.9072 29.1522 51.7705 29.5552ZM53.148 25.7541C52.9557 25.4042 52.7218 25.0873 52.4464 24.8034C52.171 24.5195 51.8602 24.2782 51.5144 24.079C51.1681 23.8804 50.7882 23.7269 50.3738 23.6182C49.9594 23.5089 49.5173 23.4549 49.0477 23.4549C48.3472 23.4549 47.7087 23.5733 47.1317 23.8108C46.5554 24.0475 46.0607 24.3779 45.6485 24.8004C45.2365 25.2229 44.9173 25.7233 44.6907 26.3017C44.4644 26.8808 44.3514 27.5093 44.3514 28.188C44.3514 28.8668 44.4644 29.496 44.6907 30.0744C44.9173 30.6527 45.2365 31.1539 45.6485 31.5764C46.0607 31.9989 46.5554 32.3293 47.1317 32.566C47.7087 32.8028 48.3472 32.9211 49.0477 32.9211C49.7525 32.9211 50.3931 32.8028 50.9697 32.566C51.5463 32.3293 52.0398 31.9989 52.4499 31.5764C52.8599 31.1539 53.1769 30.6527 53.401 30.0744C53.6254 29.496 53.7373 28.8668 53.7373 28.188C53.7373 27.7356 53.6873 27.304 53.5869 26.8943C53.4864 26.4845 53.34 26.1047 53.148 25.7541Z" fill="white"/>
<path d="M80.0461 32.8184H85.8891V31.4414H81.7757V28.8224H85.0176V27.4964H81.7757V24.9284H85.8891V23.5574H80.0461V32.8184Z" fill="white"/>
<path d="M94.0972 27.2177C94.0208 27.429 93.9046 27.6081 93.748 27.7556C93.5921 27.9032 93.3965 28.0163 93.162 28.095C92.9266 28.1744 92.6516 28.2141 92.3354 28.2141H91.0479V24.8894H92.3354C92.6561 24.8894 92.9334 24.9269 93.1687 25.0018C93.4025 25.0759 93.5974 25.1838 93.751 25.3247C93.9054 25.4662 94.0208 25.637 94.0972 25.8371C94.1736 26.0378 94.2126 26.2626 94.2126 26.5106C94.2126 26.7705 94.1736 27.0065 94.0972 27.2177ZM95.0647 24.3837C94.7702 24.123 94.3962 23.92 93.9436 23.7747C93.4909 23.6301 92.9544 23.5574 92.3354 23.5574H89.3236V32.8184H91.0479V29.5588H92.3354C92.9379 29.5588 93.464 29.4839 93.9151 29.3341C94.3655 29.185 94.7402 28.976 95.0392 28.7071C95.3374 28.4381 95.5623 28.1167 95.7121 27.7429C95.8613 27.3691 95.9362 26.9585 95.9362 26.5106C95.9362 26.079 95.8643 25.6812 95.7211 25.3187C95.578 24.9561 95.3599 24.6444 95.0647 24.3837Z" fill="white"/>
<path d="M97.7617 23.5574V24.9726H100.555V32.8184H102.278V24.9726H105.072V23.5574H97.7617Z" fill="white"/>
<path d="M34.3598 32.8184H36.0832V23.5574H34.3598V32.8184Z" fill="white"/>
<path d="M40.2091 29.9979C39.2586 28.576 38.887 27.9452 38.887 27.9452L41.7679 23.5574H40.2944C40.132 23.5574 39.993 23.6001 39.8781 23.6855C39.7625 23.771 39.6619 23.8818 39.5766 24.0182L36.9638 27.9632C36.9638 27.9632 37.3012 28.4411 37.7505 29.2C37.7505 29.2 38.2637 30.2308 39.2558 31.3905C40.6322 32.9997 42.0024 32.8191 42.0024 32.8191L42.4391 31.3441C42.4391 31.3441 40.9853 31.1583 40.2091 29.9979Z" fill="white"/>
<path d="M62.7187 28.0725C61.68 28.0111 61.3106 27.5564 59.9393 27.3174C59.1689 27.1833 58.3992 27.1953 58.3541 27.1998V23.5574H56.6247V32.8184H58.3541C58.3541 32.8184 58.3552 28.8426 58.3552 28.6539C58.4846 28.6613 59.6379 28.5917 60.6972 29.0644C61.3452 29.3543 62.474 29.5753 62.7047 29.5821V32.8184H64.4345V23.5574H62.7047C62.7047 23.5574 62.7168 27.868 62.7187 28.0725Z" fill="white"/>
<path d="M76.1913 32.3907C75.5895 32.2618 75.2823 31.8992 75.1361 31.7239L75.1541 31.4924V23.5575H73.4182V31.4924H69.9201V23.5575H68.1902V32.8192H73.9202C75.313 34.3414 77.3116 33.883 77.3116 33.883L77.3094 32.3412C77.3094 32.3412 76.7428 32.5083 76.1913 32.3907Z" fill="white"/>
</g>
<defs>
<clipPath id="clip0_1_450">
<rect width="107.806" height="33.6355" fill="white" transform="translate(0.19397 0.312256)"/>
</clipPath>
</defs>
</svg>
