<svg width="44" height="43" viewBox="0 0 44 43" fill="none" xmlns="http://www.w3.org/2000/svg">
<g clip-path="url(#clip0_168_2820)">
<rect width="42.26" height="42.26" transform="translate(0.972656)" fill="#EFEFEF"/>
<path fill-rule="evenodd" clip-rule="evenodd" d="M9.79777 32.4473C8.77045 32.4473 7.85698 33.0885 7.45747 33.7157C7.22897 32.9604 6.60114 32.4473 5.57384 32.4473C4.53212 32.4473 3.61877 33.1312 3.33346 33.559V32.6184L1.83496 32.6183V39.5015H3.33352V34.699C3.64734 34.2429 4.26091 33.7724 4.91743 33.7724C5.73069 33.7724 6.05906 34.2712 6.05906 35.0125V39.5013H7.55742V34.6846C7.85698 34.2429 8.48477 33.7724 9.1557 33.7724C9.95471 33.7724 10.283 34.2712 10.283 35.0125V39.5013H11.7813V34.5278C11.7811 33.1312 11.0677 32.4473 9.79777 32.4473Z" fill="#EE2432"/>
<path fill-rule="evenodd" clip-rule="evenodd" d="M16.8334 38.3472C15.5633 38.3472 14.8497 37.2781 14.8497 36.0527C14.8497 34.8415 15.563 33.7727 16.8334 33.7727C18.1175 33.7727 18.831 34.8415 18.831 36.0527C18.831 37.2781 18.1175 38.3472 16.8334 38.3472ZM16.8334 32.4472C14.65 32.4472 13.2944 34.0861 13.2944 36.0527C13.2944 38.0339 14.65 39.6726 16.8334 39.6726C19.0449 39.6726 20.3869 38.0337 20.3869 36.0527C20.3866 34.0861 19.0449 32.4472 16.8334 32.4472Z" fill="#EE2432"/>
<path fill-rule="evenodd" clip-rule="evenodd" d="M24.4535 35.3118C23.6399 35.1268 22.955 34.9842 22.955 34.4854C22.955 34.0006 23.4545 33.6446 24.2393 33.6446C25.0956 33.6446 25.8664 34.0006 26.2797 34.471L26.9077 33.4164C26.2797 32.8606 25.395 32.4475 24.2248 32.4475C22.4838 32.4475 21.5135 33.4164 21.5135 34.5422C21.5135 36.0815 22.9265 36.3949 24.1105 36.6514C24.9524 36.8368 25.6801 36.9936 25.6801 37.5634C25.6801 38.105 25.2234 38.4896 24.3247 38.4896C23.4253 38.4896 22.4696 38.0196 21.9841 37.5205L21.2993 38.6035C22.0127 39.3017 23.0832 39.6726 24.2535 39.6726C26.1086 39.6726 27.1216 38.7464 27.1216 37.5349C27.1219 35.9105 25.6521 35.5683 24.4535 35.3118Z" fill="#EE2432"/>
<path fill-rule="evenodd" clip-rule="evenodd" d="M29.4047 37.6632C28.8625 37.6632 28.4058 38.1193 28.4058 38.6607C28.4058 39.202 28.8627 39.6582 29.4047 39.6582C29.947 39.6582 30.4036 39.202 30.4036 38.6607C30.4036 38.1193 29.947 37.6632 29.4047 37.6632Z" fill="#EE2432"/>
<path fill-rule="evenodd" clip-rule="evenodd" d="M33.6292 33.6301V32.6181H32.1309V39.5014L33.6292 39.5015V34.813C33.929 34.3282 34.771 33.9008 35.3989 33.9008C35.5841 33.9008 35.7412 33.915 35.8696 33.9436V32.4617C34.9704 32.4617 34.143 32.9744 33.6292 33.6301Z" fill="#EE2432"/>
<path fill-rule="evenodd" clip-rule="evenodd" d="M41.7339 32.6184V37.4495C41.3771 37.9195 40.7205 38.3472 39.9642 38.3472C39.1223 38.3472 38.58 38.0196 38.58 36.9506V32.6184H37.0815V37.4924C37.0815 38.9031 37.8095 39.6726 39.2934 39.6726C40.3778 39.6726 41.2343 39.1454 41.7335 38.5897V39.5017L43.2323 39.5016V32.6184H41.7339Z" fill="#EE2432"/>
<path fill-rule="evenodd" clip-rule="evenodd" d="M13.7104 3.69812H31.357V22.3593C31.357 22.7928 31.0038 23.1456 30.5695 23.1456H28.2965C26.1104 23.1456 24.2233 23.5069 22.1141 25.8133L22.1058 23.1456H14.498C14.0638 23.1456 13.7105 22.7928 13.7105 22.3593L13.7104 3.69812ZM12.1875 22.3593C12.1875 23.6316 13.224 24.6666 14.498 24.6666H20.8333V28.9368L22.2322 27.4636C24.2275 25.3987 25.8146 24.6666 28.2965 24.6666H30.5695C31.8436 24.6666 32.88 23.6316 32.88 22.3593V2.17722H12.1875V22.3593Z" fill="#EE2432"/>
</g>
<defs>
<clipPath id="clip0_168_2820">
<rect width="42.26" height="42.26" fill="white" transform="translate(0.972656)"/>
</clipPath>
</defs>
</svg>
