<svg width="44" height="43" viewBox="0 0 44 43" fill="none" xmlns="http://www.w3.org/2000/svg">
<g clip-path="url(#clip0_1_393)">
<rect width="42.26" height="42.26" transform="translate(0.972488)" fill="#010938"/>
<path fill-rule="evenodd" clip-rule="evenodd" d="M9.79774 32.4473C8.77042 32.4473 7.85695 33.0885 7.45744 33.7157C7.22894 32.9604 6.60111 32.4473 5.57381 32.4473C4.53209 32.4473 3.61874 33.1312 3.33343 33.559V32.6184L1.83493 32.6183V39.5015H3.33349V34.699C3.64731 34.2429 4.26088 33.7724 4.9174 33.7724C5.73066 33.7724 6.05903 34.2712 6.05903 35.0125V39.5013H7.55738V34.6846C7.85695 34.2429 8.48474 33.7724 9.15567 33.7724C9.95468 33.7724 10.2829 34.2712 10.2829 35.0125V39.5013H11.7813V34.5278C11.7811 33.1312 11.0677 32.4473 9.79774 32.4473Z" fill="white"/>
<path fill-rule="evenodd" clip-rule="evenodd" d="M16.8332 38.3472C15.5631 38.3472 14.8495 37.2781 14.8495 36.0527C14.8495 34.8415 15.5628 33.7727 16.8332 33.7727C18.1173 33.7727 18.8308 34.8415 18.8308 36.0527C18.8308 37.2781 18.1173 38.3472 16.8332 38.3472ZM16.8332 32.4472C14.6498 32.4472 13.2942 34.0861 13.2942 36.0527C13.2942 38.0339 14.6498 39.6726 16.8332 39.6726C19.0447 39.6726 20.3867 38.0337 20.3867 36.0527C20.3864 34.0861 19.0447 32.4472 16.8332 32.4472Z" fill="white"/>
<path fill-rule="evenodd" clip-rule="evenodd" d="M24.4534 35.3118C23.6397 35.1268 22.9549 34.9842 22.9549 34.4854C22.9549 34.0006 23.4544 33.6446 24.2391 33.6446C25.0954 33.6446 25.8663 34.0006 26.2795 34.471L26.9075 33.4164C26.2795 32.8606 25.3949 32.4475 24.2246 32.4475C22.4837 32.4475 21.5134 33.4164 21.5134 34.5422C21.5134 36.0815 22.9264 36.3949 24.1103 36.6514C24.9522 36.8368 25.68 36.9936 25.68 37.5634C25.68 38.105 25.2233 38.4896 24.3245 38.4896C23.4252 38.4896 22.4695 38.0196 21.984 37.5205L21.2992 38.6035C22.0126 39.3017 23.083 39.6726 24.2533 39.6726C26.1085 39.6726 27.1215 38.7464 27.1215 37.5349C27.1218 35.9105 25.6519 35.5683 24.4534 35.3118Z" fill="white"/>
<path fill-rule="evenodd" clip-rule="evenodd" d="M29.4048 37.6632C28.8626 37.6632 28.4059 38.1193 28.4059 38.6607C28.4059 39.202 28.8628 39.6582 29.4048 39.6582C29.9471 39.6582 30.4037 39.202 30.4037 38.6607C30.4037 38.1193 29.9471 37.6632 29.4048 37.6632Z" fill="white"/>
<path fill-rule="evenodd" clip-rule="evenodd" d="M33.629 33.6301V32.6181H32.1306V39.5014L33.629 39.5015V34.813C33.9288 34.3282 34.7707 33.9008 35.3987 33.9008C35.5839 33.9008 35.7409 33.915 35.8694 33.9436V32.4617C34.9702 32.4617 34.1428 32.9744 33.629 33.6301Z" fill="white"/>
<path fill-rule="evenodd" clip-rule="evenodd" d="M41.7341 32.6184V37.4495C41.3773 37.9195 40.7207 38.3472 39.9644 38.3472C39.1225 38.3472 38.5802 38.0196 38.5802 36.9506V32.6184H37.0817V37.4924C37.0817 38.9031 37.8097 39.6726 39.2936 39.6726C40.378 39.6726 41.2345 39.1454 41.7337 38.5897V39.5017L43.2325 39.5016V32.6184H41.7341Z" fill="white"/>
<path fill-rule="evenodd" clip-rule="evenodd" d="M13.7104 3.69812H31.357V22.3593C31.357 22.7928 31.0037 23.1456 30.5695 23.1456H28.2965C26.1104 23.1456 24.2232 23.5069 22.1141 25.8133L22.1057 23.1456H14.4979C14.0637 23.1456 13.7104 22.7928 13.7104 22.3593L13.7104 3.69812ZM12.1875 22.3593C12.1875 23.6316 13.2239 24.6666 14.4979 24.6666H20.8332V28.9368L22.2321 27.4636C24.2275 25.3987 25.8146 24.6666 28.2965 24.6666H30.5695C31.8435 24.6666 32.8799 23.6316 32.8799 22.3593V2.17722H12.1875V22.3593Z" fill="white"/>
</g>
<defs>
<clipPath id="clip0_1_393">
<rect width="42.26" height="42.26" fill="white" transform="translate(0.972488)"/>
</clipPath>
</defs>
</svg>
