<svg width="108" height="34" viewBox="0 0 108 34" fill="none" xmlns="http://www.w3.org/2000/svg">
<g clip-path="url(#clip0_168_2877)">
<rect width="107.806" height="33.6355" transform="translate(0.193848 0.312256)" fill="#EFEFEF"/>
<path d="M48.5049 5.63042V3.87293C48.5049 3.74482 48.5002 3.60623 48.4912 3.45415C48.4818 3.30133 48.4703 3.14625 48.456 2.98818L48.4087 2.45554L51.8367 7.28603C51.9691 7.54074 52.1408 7.65161 52.3886 7.65161H52.6568C52.9043 7.65161 53.0766 7.54074 53.1979 7.30401L56.6033 2.47202L56.5542 3.00991C56.5314 3.26087 56.5177 5.10752 56.5135 5.81171C56.6402 5.70608 56.8141 5.57048 57.0375 5.41766C57.405 5.16595 57.7294 5.04608 57.8947 4.99589V0.312232H56.6074C56.5273 0.312232 56.4583 0.314482 56.4009 0.318977C56.3539 0.322723 56.3127 0.33171 56.2752 0.345943C56.2451 0.35793 56.2169 0.377408 56.1892 0.405875C56.1571 0.438088 56.1254 0.486035 56.0937 0.545967L53.0712 4.79063C53.0031 4.92473 52.9294 5.08205 52.8606 5.24386C52.7907 5.40867 52.7237 5.57948 52.6584 5.75553L52.5245 6.11736L52.387 5.75703C52.3099 5.55251 52.2303 5.35398 52.1497 5.1622L51.9691 4.78388L48.9273 0.563196C48.8841 0.484535 48.8524 0.435845 48.8217 0.402883C48.7969 0.375914 48.7705 0.357181 48.7423 0.345943C48.7052 0.33171 48.6632 0.322723 48.6175 0.318977C48.5585 0.314482 48.49 0.312232 48.4097 0.312232H47.1226V4.97792C47.2796 5.00788 47.5627 5.08204 47.9105 5.26184C48.1615 5.39069 48.3624 5.52554 48.5049 5.63042Z" fill="#121213"/>
<path d="M57.6787 9.66919L56.5178 10.7585C57.6342 11.8387 59.4193 11.8619 60.5643 10.7884C61.7445 9.68118 61.8035 7.82031 60.697 6.64115C60.1601 6.06955 59.4332 5.74217 58.65 5.7167C57.8564 5.68674 57.1194 5.97366 56.5482 6.51005L56.4746 6.58796L52.622 10.7884L52.4345 11.1735L52.2463 10.7884L48.3137 6.50331C47.7481 5.97291 46.9989 5.68824 46.2183 5.7167C45.4347 5.74217 44.7079 6.06955 44.1713 6.64115C43.065 7.82031 43.1243 9.68118 44.3039 10.7884C45.4489 11.8619 47.2344 11.8372 48.3505 10.7585L47.1896 9.66919C46.6752 10.1119 45.8964 10.1052 45.3906 9.63099C45.1288 9.38527 44.978 9.0519 44.9663 8.69156C44.9552 8.33197 45.084 7.98961 45.3296 7.72741C45.5759 7.46521 45.9094 7.31463 46.2687 7.30265C46.2802 7.30265 46.2912 7.30189 46.3023 7.30189C46.6371 7.30189 46.9431 7.41502 47.1909 7.62852L52.1159 13.2224C52.1225 13.2231 52.2812 13.3655 52.4227 13.3655C52.5608 13.3655 52.7363 13.2299 52.7737 13.1924L57.6634 7.64275C57.9297 7.41052 58.261 7.2974 58.5977 7.30265C58.9592 7.31463 59.2927 7.46521 59.539 7.72741C59.7846 7.98961 59.9134 8.33197 59.902 8.69156C59.8903 9.0519 59.7396 9.38527 59.4777 9.63099C58.9721 10.1059 58.194 10.1127 57.6787 9.66919Z" fill="#121213"/>
<path d="M8.42871 23.9013C8.37543 23.9058 8.32717 23.9163 8.28371 23.9327C8.24054 23.9485 8.20023 23.9754 8.16343 24.0122C8.12626 24.0496 8.09134 24.0991 8.05837 24.1605L5.42251 29.1033C5.35238 29.2352 5.28669 29.3723 5.2248 29.5139C5.16319 29.6562 5.10353 29.803 5.0458 29.9551C4.97759 29.7791 4.90743 29.609 4.83635 29.445C4.78237 29.3348 4.72942 29.2262 4.67544 29.1161L2.00242 24.1605C1.96943 24.0991 1.93577 24.0496 1.90053 24.0122C1.8656 23.9754 1.82655 23.9485 1.78349 23.9327C1.74032 23.9163 1.69172 23.9058 1.63838 23.9013C1.58511 23.8975 1.521 23.8953 1.44706 23.8953H0.193848V32.8184H1.65683V27.0544C1.65683 26.9436 1.65267 26.8222 1.64442 26.6903C1.63622 26.5592 1.62606 26.4252 1.61362 26.2896L4.34222 31.3748C4.46976 31.6175 4.66525 31.7388 4.92865 31.7388H5.16319C5.42655 31.7388 5.62216 31.6175 5.7497 31.3748L8.44745 26.3083C8.42264 26.5757 8.41036 26.8244 8.41036 27.0544V32.8184H9.87331V23.8953H8.62003C8.54614 23.8953 8.48207 23.8975 8.42871 23.9013Z" fill="#121213"/>
<path d="M20.0652 29.6742C19.9332 30.063 19.7463 30.3926 19.5031 30.6615C19.2604 30.9312 18.9653 31.138 18.6174 31.2818C18.2696 31.4257 17.8777 31.4976 17.4414 31.4976C17.0053 31.4976 16.6134 31.4257 16.2655 31.2818C15.9178 31.138 15.6217 30.9312 15.3767 30.6615C15.1316 30.3926 14.9435 30.063 14.8118 29.6742C14.68 29.2854 14.6144 28.8464 14.6144 28.3572C14.6144 27.8672 14.68 27.4282 14.8118 27.0394C14.9435 26.6506 15.1316 26.3202 15.3767 26.049C15.6217 25.7771 15.9178 25.5696 16.2655 25.4258C16.6134 25.2812 17.0053 25.21 17.4414 25.21C17.8777 25.21 18.2696 25.2812 18.6174 25.4258C18.9653 25.5696 19.2604 25.7771 19.5031 26.049C19.7463 26.3202 19.9332 26.6506 20.0652 27.0394C20.1969 27.4282 20.2629 27.8672 20.2629 28.3572C20.2629 28.8464 20.1969 29.2854 20.0652 29.6742ZM21.3923 26.0116C21.2074 25.6745 20.982 25.3696 20.7164 25.0954C20.4507 24.822 20.1516 24.5897 19.8183 24.3979C19.4848 24.2069 19.1185 24.0586 18.7193 23.9537C18.3201 23.8488 17.8943 23.7964 17.4414 23.7964C16.7666 23.7964 16.1513 23.911 15.5959 24.1395C15.0402 24.3672 14.5637 24.6849 14.1669 25.0924C13.7696 25.4999 13.4618 25.9816 13.2438 26.5397C13.0254 27.0971 12.9165 27.7024 12.9165 28.3572C12.9165 29.0112 13.0254 29.6165 13.2438 30.1738C13.4618 30.732 13.7696 31.2144 14.1669 31.6219C14.5637 32.0287 15.0402 32.3464 15.5959 32.5749C16.1513 32.8034 16.7666 32.918 17.4414 32.918C18.1207 32.918 18.7381 32.8034 19.2937 32.5749C19.8491 32.3464 20.3245 32.0287 20.7195 31.6219C21.1147 31.2144 21.4203 30.732 21.6361 30.1738C21.8525 29.6165 21.9604 29.0112 21.9604 28.3572C21.9604 27.9212 21.9118 27.5054 21.8154 27.1106C21.7186 26.7158 21.5777 26.3495 21.3923 26.0116Z" fill="#121213"/>
<path d="M30.7755 30.6347C30.724 30.6347 30.6751 30.6467 30.6282 30.67C30.5809 30.6939 30.5362 30.7246 30.4934 30.7629C30.3527 30.891 30.2106 30.9988 30.0677 31.0865C29.9242 31.1734 29.7726 31.2453 29.6126 31.3007C29.4524 31.3562 29.2772 31.3966 29.0872 31.4221C28.897 31.4483 28.6847 31.4611 28.4496 31.4611C28.0567 31.4611 27.6892 31.3869 27.3477 31.2401C27.006 31.0925 26.7093 30.8805 26.4573 30.6025C26.205 30.3254 26.0054 29.9837 25.8581 29.5777C25.7109 29.1724 25.6373 28.7094 25.6373 28.188C25.6373 27.6719 25.7052 27.2112 25.8423 26.8081C25.9788 26.4043 26.171 26.0627 26.4186 25.7833C26.6664 25.5038 26.9621 25.2903 27.3062 25.1428C27.6499 24.9952 28.0292 24.9218 28.4432 24.9218C28.6867 24.9218 28.9015 24.9405 29.0872 24.9757C29.2731 25.0124 29.4362 25.0574 29.5775 25.1105C29.7184 25.1645 29.8422 25.2222 29.9491 25.2866C30.0557 25.351 30.1496 25.4095 30.2309 25.4626C30.3121 25.5166 30.3867 25.5615 30.4549 25.5975C30.5234 25.6335 30.5898 25.6522 30.6539 25.6522C30.7478 25.6522 30.8215 25.6327 30.8748 25.5937C30.9281 25.5555 30.9719 25.5113 31.0062 25.4597L31.5828 24.6588C31.2153 24.3 30.7701 24.0101 30.2468 23.7883C29.7238 23.5658 29.1246 23.4549 28.4496 23.4549C27.7708 23.4549 27.1513 23.5711 26.5915 23.804C26.032 24.037 25.5506 24.3629 25.1469 24.7809C24.7432 25.1989 24.4304 25.6979 24.2086 26.2762C23.9861 26.8553 23.875 27.4921 23.875 28.188C23.875 28.8758 23.9788 29.5095 24.1857 30.0901C24.3933 30.6715 24.6909 31.1704 25.0796 31.5892C25.4681 32.0079 25.9371 32.3338 26.4859 32.569C27.0349 32.8043 27.6531 32.9211 28.3408 32.9211C29.1093 32.9211 29.7684 32.7975 30.3175 32.5496C30.8662 32.3023 31.3286 31.9458 31.7043 31.4798L31.0255 30.7441C30.9525 30.6715 30.8694 30.6347 30.7755 30.6347Z" fill="#121213"/>
<path d="M51.7702 29.5552C51.6333 29.959 51.4395 30.3006 51.1871 30.5801C50.9351 30.8602 50.6286 31.0745 50.2677 31.2243C49.9067 31.3734 49.5002 31.4483 49.0474 31.4483C48.5947 31.4483 48.1876 31.3734 47.8267 31.2243C47.466 31.0745 47.1584 30.8602 46.9042 30.5801C46.6501 30.3006 46.4545 29.959 46.3181 29.5552C46.1812 29.1522 46.1127 28.696 46.1127 28.188C46.1127 27.6801 46.1812 27.2239 46.3181 26.8208C46.4545 26.4171 46.6501 26.0747 46.9042 25.793C47.1584 25.5113 47.466 25.2956 47.8267 25.1458C48.1876 24.9967 48.5947 24.9218 49.0474 24.9218C49.5002 24.9218 49.9067 24.9967 50.2677 25.1458C50.6286 25.2956 50.9351 25.5113 51.1871 25.793C51.4395 26.0747 51.6333 26.4171 51.7702 26.8208C51.9069 27.2239 51.9751 27.6801 51.9751 28.188C51.9751 28.696 51.9069 29.1522 51.7702 29.5552ZM53.1477 25.7541C52.9554 25.4042 52.7215 25.0873 52.4461 24.8034C52.1707 24.5195 51.8599 24.2782 51.514 24.079C51.1678 23.8804 50.7879 23.7269 50.3735 23.6182C49.9591 23.5089 49.517 23.4549 49.0474 23.4549C48.3469 23.4549 47.7084 23.5733 47.1314 23.8108C46.5551 24.0475 46.0604 24.3779 45.6482 24.8004C45.2362 25.2229 44.917 25.7233 44.6904 26.3017C44.4641 26.8808 44.3511 27.5093 44.3511 28.188C44.3511 28.8668 44.4641 29.496 44.6904 30.0744C44.917 30.6527 45.2362 31.1539 45.6482 31.5764C46.0604 31.9989 46.5551 32.3293 47.1314 32.566C47.7084 32.8028 48.3469 32.9211 49.0474 32.9211C49.7522 32.9211 50.3928 32.8028 50.9694 32.566C51.546 32.3293 52.0395 31.9989 52.4496 31.5764C52.8596 31.1539 53.1766 30.6527 53.4007 30.0744C53.6251 29.496 53.737 28.8668 53.737 28.188C53.737 27.7356 53.687 27.304 53.5866 26.8943C53.4861 26.4845 53.3397 26.1047 53.1477 25.7541Z" fill="#121213"/>
<path d="M80.0459 32.8184H85.8889V31.4414H81.7755V28.8224H85.0174V27.4964H81.7755V24.9284H85.8889V23.5574H80.0459V32.8184Z" fill="#121213"/>
<path d="M94.0969 27.2177C94.0204 27.429 93.9043 27.6081 93.7476 27.7556C93.5918 27.9032 93.3962 28.0163 93.1616 28.095C92.9263 28.1744 92.6513 28.2141 92.335 28.2141H91.0476V24.8894H92.335C92.6558 24.8894 92.9331 24.9269 93.1684 25.0018C93.4022 25.0759 93.597 25.1838 93.7506 25.3247C93.905 25.4662 94.0204 25.637 94.0969 25.8371C94.1733 26.0378 94.2123 26.2626 94.2123 26.5106C94.2123 26.7705 94.1733 27.0065 94.0969 27.2177ZM95.0643 24.3837C94.7698 24.123 94.3959 23.92 93.9432 23.7747C93.4906 23.6301 92.954 23.5574 92.335 23.5574H89.3232V32.8184H91.0476V29.5588H92.335C92.9376 29.5588 93.4636 29.4839 93.9148 29.3341C94.3651 29.185 94.7398 28.976 95.0388 28.7071C95.3371 28.4381 95.5619 28.1167 95.7118 27.7429C95.8609 27.3691 95.9359 26.9585 95.9359 26.5106C95.9359 26.079 95.8639 25.6812 95.7208 25.3187C95.5777 24.9561 95.3596 24.6444 95.0643 24.3837Z" fill="#121213"/>
<path d="M97.7617 23.5574V24.9726H100.555V32.8184H102.278V24.9726H105.072V23.5574H97.7617Z" fill="#121213"/>
<path d="M34.3599 32.8184H36.0833V23.5574H34.3599V32.8184Z" fill="#121213"/>
<path d="M40.2091 29.9979C39.2586 28.576 38.887 27.9452 38.887 27.9452L41.7679 23.5574H40.2945C40.132 23.5574 39.9931 23.6001 39.8782 23.6855C39.7625 23.771 39.662 23.8818 39.5766 24.0182L36.9639 27.9632C36.9639 27.9632 37.3012 28.4411 37.7506 29.2C37.7506 29.2 38.2638 30.2308 39.2558 31.3905C40.6322 32.9997 42.0025 32.8191 42.0025 32.8191L42.4391 31.3441C42.4391 31.3441 40.9853 31.1583 40.2091 29.9979Z" fill="#121213"/>
<path d="M62.7186 28.0725C61.6798 28.0111 61.3104 27.5564 59.9391 27.3174C59.1687 27.1833 58.3991 27.1953 58.354 27.1998V23.5574H56.6245V32.8184H58.354C58.354 32.8184 58.355 28.8426 58.355 28.6539C58.4844 28.6613 59.6377 28.5917 60.697 29.0644C61.345 29.3543 62.4739 29.5753 62.7045 29.5821V32.8184H64.4344V23.5574H62.7045C62.7045 23.5574 62.7166 27.868 62.7186 28.0725Z" fill="#121213"/>
<path d="M76.191 32.3907C75.5893 32.2618 75.282 31.8992 75.1359 31.7239L75.1539 31.4924V23.5575H73.4179V31.4924H69.9198V23.5575H68.1899V32.8192H73.9199C75.3127 34.3414 77.3114 33.883 77.3114 33.883L77.3091 32.3412C77.3091 32.3412 76.7426 32.5083 76.191 32.3907Z" fill="#121213"/>
</g>
<defs>
<clipPath id="clip0_168_2877">
<rect width="107.806" height="33.6355" fill="white" transform="translate(0.193848 0.312256)"/>
</clipPath>
</defs>
</svg>
