<svg width="84" height="43" viewBox="0 0 84 43" fill="none" xmlns="http://www.w3.org/2000/svg">
<g clip-path="url(#clip0_1_402)">
<rect width="82.7951" height="42.26" transform="translate(0.481445)" fill="#010938"/>
<path d="M21.0617 22.7905C21.0617 21.8331 21.0274 21.3592 21.0334 21.3592H21.039C21.0446 21.3592 21.3682 21.9131 21.4021 21.9709L21.8753 22.7786H22.377L22.851 21.9709C22.886 21.9131 23.2086 21.3592 23.2152 21.3592H23.22C23.2268 21.3592 23.1921 21.8331 23.1921 22.7905V23.7769H24.1436V19.737H23.2324L22.4763 20.9603C22.1818 21.4404 22.136 21.5434 22.1293 21.5434H22.1241C22.1175 21.5434 22.0719 21.4404 21.7782 20.9603L21.021 19.737H20.1101V23.7769H21.0617V22.7905Z" fill="white"/>
<path d="M27.421 22.9009C26.7689 22.9009 26.3362 22.4324 26.3362 21.7572C26.3362 21.0758 26.7689 20.6137 27.421 20.6137C28.0779 20.6137 28.5121 21.0758 28.5121 21.7572C28.5121 22.4324 28.0779 22.9009 27.421 22.9009ZM27.421 19.6563C26.2614 19.6563 25.326 20.5395 25.326 21.7572C25.326 22.9739 26.2614 23.8574 27.421 23.8574C28.5806 23.8574 29.522 22.9739 29.522 21.7572C29.522 20.5395 28.5806 19.6563 27.421 19.6563Z" fill="white"/>
<path d="M42.0141 20.6137C42.6733 20.6137 43.106 21.0758 43.106 21.7572C43.106 22.4324 42.6733 22.9009 42.0141 22.9009C41.3631 22.9009 40.9305 22.4324 40.9305 21.7572C40.9305 21.0758 41.3631 20.6137 42.0141 20.6137ZM42.0141 23.8574C43.1746 23.8574 44.1143 22.9739 44.1143 21.7572C44.1143 20.5395 43.1746 19.6563 42.0141 19.6563C40.8553 19.6563 39.9197 20.5395 39.9197 21.7572C39.9197 22.9739 40.8553 23.8574 42.0141 23.8574Z" fill="white"/>
<path d="M46.2675 22.9637V22.0511H46.9424C47.2484 22.0511 47.469 22.2246 47.469 22.5069C47.469 22.773 47.2664 22.9637 46.9424 22.9637H46.2675ZM46.2675 20.5506H46.8501C47.1107 20.5506 47.3006 20.7126 47.3006 20.9316C47.3006 21.1506 47.1107 21.3125 46.8501 21.3125H46.2675V20.5506ZM48.4841 22.553C48.4841 22.1434 48.1555 21.7055 47.7743 21.6004V21.5956C48.017 21.5087 48.2763 21.1859 48.2763 20.8046C48.2763 20.2163 47.7743 19.737 47.0526 19.737H45.2978V23.7769H47.0422C48.0395 23.7769 48.4841 23.2294 48.4841 22.553Z" fill="white"/>
<path d="M66.0349 22.6525C66.4051 22.1434 66.9472 21.3762 66.9517 21.3762H66.9584C66.9645 21.3762 66.9517 21.9992 66.9517 22.8822V23.7769H67.9222V19.737H67.0113L66.1503 20.8911C65.8905 21.2381 65.2737 22.1087 65.267 22.1087H65.2611C65.2567 22.1087 65.267 21.394 65.267 20.6612V19.737H64.2987V23.7769H65.2096L66.0349 22.6525Z" fill="white"/>
<path d="M60.9339 22.6525C61.3032 22.1434 61.8455 21.3762 61.8515 21.3762H61.8574C61.8633 21.3762 61.8515 21.9992 61.8515 22.8822V23.7769H62.8219V19.737H61.9103L61.0494 20.8911C60.7894 21.2381 60.1728 22.1087 60.1675 22.1087H60.1608C60.1555 22.1087 60.1675 21.394 60.1675 20.6612V19.737H59.197V23.7769H60.1094L60.9339 22.6525Z" fill="white"/>
<path d="M23.5608 37.4942H22.5903V40.5642L22.5893 40.6297L22.5713 40.6268H21.0792V37.4942H20.1101V41.5332H21.0792H22.5713H22.5903H23.5608H23.5667V42.26H24.4434V41.5332H24.4463V40.5642H23.5608V37.4942Z" fill="white"/>
<path d="M32.4802 39.0575H30.9681V37.4943H29.9991V41.5332H30.9681V39.9632H32.4802V41.5332H33.4499V37.4943H32.4802V39.0575Z" fill="white"/>
<path d="M34.535 38.3991H35.746V41.5332H36.7157V38.3991H37.9446V37.4943H34.535V38.3991Z" fill="white"/>
<path d="M21.0792 29.5215H22.5903V32.6555H23.5608V28.615H22.5903H21.0792H20.1101V32.6555H21.0792V29.5215Z" fill="white"/>
<path d="M30.1328 30.635C30.1328 29.955 30.5662 29.4932 31.2178 29.4932C31.8761 29.4932 32.3081 29.955 32.3081 30.635C32.3081 31.3106 31.8761 31.7783 31.2178 31.7783C30.5662 31.7783 30.1328 31.3106 30.1328 30.635ZM33.318 30.635C33.318 29.4173 32.3797 28.534 31.2178 28.534C30.0579 28.534 29.1229 29.4173 29.1229 30.635C29.1229 31.8535 30.0579 32.7368 31.2178 32.7368C32.3797 32.7368 33.318 31.8535 33.318 30.635Z" fill="white"/>
<path d="M78.621 27.1224H77.0301V27.9641H78.621V27.1224Z" fill="white"/>
<path d="M44.3445 31.7783C43.6929 31.7783 43.2594 31.3106 43.2594 30.635C43.2594 29.955 43.6929 29.4932 44.3445 29.4932C45.0021 29.4932 45.4349 29.955 45.4349 30.635C45.4349 31.3106 45.0021 31.7783 44.3445 31.7783ZM44.3445 28.534C43.3376 28.534 42.502 29.2199 42.2979 30.1927H41.4846V28.6151H40.5156V32.6557H41.4846V31.1065H42.3083C42.5273 32.0538 43.3532 32.7368 44.3445 32.7368C45.5042 32.7368 46.4448 31.8535 46.4448 30.635C46.4448 29.4173 45.5042 28.534 44.3445 28.534Z" fill="white"/>
<path d="M55.4797 31.749H53.4757V31.0333H54.9198V30.2126H53.4757V29.5215H55.4441V28.615H52.5074V32.6555H55.4797V31.749Z" fill="white"/>
<path d="M28.5665 40.6275H26.5627V39.9111H28.0072V39.0911H26.5627V38.3999H28.5311V37.4928H25.5941V41.5332H28.5665V40.6275Z" fill="white"/>
<path d="M58.4344 30.6415H57.8795V29.5215H58.4344C58.8083 29.5215 59.0339 29.7583 59.0339 30.0591C59.0339 30.3593 58.8425 30.6423 58.4686 30.6423L58.4344 30.6415ZM58.4508 28.615H56.9091V32.6555H57.8795V31.5479H58.4508C59.4435 31.5479 60.0439 30.8665 60.0439 30.0011C60.0439 29.1349 59.4435 28.615 58.4508 28.615Z" fill="white"/>
<path d="M26.5541 30.65H25.9992V29.5298H26.5541C26.928 29.5298 27.1541 29.7659 27.1541 30.0668C27.1541 30.3669 26.9622 30.65 26.5883 30.65H26.5541ZM26.5697 28.6227H25.0283V32.6631H25.9992V31.5556H26.5697C27.5633 31.5556 28.1632 30.8741 28.1632 30.0087C28.1632 29.1425 27.5633 28.6227 26.5697 28.6227Z" fill="white"/>
<path d="M40.5581 39.5229H40.0032V38.4035H40.5581C40.9319 38.4035 41.1576 38.6396 41.1576 38.9405C41.1576 39.2406 40.9663 39.5237 40.5923 39.5237L40.5581 39.5229ZM40.5737 37.4964H39.0319V41.5376H40.0032V40.4293H40.5737C41.5673 40.4293 42.1676 39.7479 42.1676 38.8824C42.1676 38.0163 41.5673 37.4964 40.5737 37.4964Z" fill="white"/>
<path d="M69.6858 28.615H68.4972L67.5803 29.5862C67.17 29.9959 67.0829 30.1389 67.0776 30.1389H67.0724C67.0657 30.1389 67.0829 29.9437 67.0829 29.2734V28.615H66.1146V32.6555H67.0829V31.3172L67.424 30.9752L68.6476 32.6555H69.7901L68.0652 30.3347L69.6858 28.615Z" fill="white"/>
<path d="M58.1254 19.7314H56.9374L56.0206 20.703C55.6101 21.1126 55.523 21.2549 55.5178 21.2549H55.5127C55.5059 21.2549 55.523 21.0597 55.523 20.3898V19.7314H54.5547V23.7717H55.523V22.4331L55.8641 22.0916L57.0877 23.7717H58.2296L56.5053 21.4511L58.1254 19.7314Z" fill="white"/>
<path d="M39.2845 19.7482H38.0965L37.1797 20.7201C36.7686 21.1294 36.6822 21.2721 36.677 21.2721H36.6718C36.665 21.2721 36.6822 21.0769 36.6822 20.4066V19.7482H35.714V23.7888H36.6822V22.4503L37.0233 22.1088L38.2471 23.7888H39.3887L37.6639 21.4684L39.2845 19.7482Z" fill="white"/>
<path d="M78.7343 28.615L77.8748 29.7687C77.6155 30.1164 76.9966 30.988 76.9921 30.988H76.9862C76.9795 30.988 76.9921 30.2722 76.9921 29.5386V28.615H76.0217V32.6555H76.9348L77.7593 31.5301C78.1288 31.0229 78.6717 30.2544 78.6762 30.2544H78.6821C78.6887 30.2544 78.6762 30.8776 78.6762 31.7611V32.6555H79.6459V28.615H78.7343Z" fill="white"/>
<path d="M66.9011 18.2444H65.3102V19.0864H66.9011V18.2444Z" fill="white"/>
<path d="M67.0143 19.7372L66.1548 20.8912C65.8949 21.2386 65.2767 22.1096 65.2722 22.1096H65.2656C65.2597 22.1096 65.2722 21.3942 65.2722 20.6607V19.7372H64.3018V23.7778H65.2141L66.0394 22.6523C66.4088 22.145 66.951 21.3763 66.9561 21.3763H66.9622C66.9682 21.3763 66.9561 21.9998 66.9561 22.8832V23.7778H67.9259V19.7372H67.0143Z" fill="white"/>
<path d="M72.7722 29.7687C72.5146 30.1164 71.897 30.988 71.8912 30.988H71.8853C71.8785 30.988 71.8912 30.2722 71.8912 29.5386V28.615H70.9207V32.6555H71.8339L72.6584 31.5301C73.0276 31.0229 73.57 30.2544 73.5758 30.2544H73.5811C73.5886 30.2544 73.5758 30.8776 73.5758 31.7611V32.6555H74.5463V28.615H73.6331L72.7722 29.7687Z" fill="white"/>
<path d="M37.5201 31.749H36.2659V31.6858L36.4468 29.4522H37.5201V31.6858V31.749ZM38.5107 31.6858V28.615H35.4564L35.2753 31.6858H34.2951V32.6555H34.2989V33.5193H35.2687V32.6555H35.2753H35.2954H36.2457H36.2659H37.3383H37.3593H38.3081H38.3296H38.3348V33.5193H39.3046V32.6555H39.3091V31.6858H38.5107Z" fill="white"/>
<path d="M50.3908 31.2934C50.2239 31.5705 49.8544 31.7671 49.4672 31.7671C48.8378 31.7671 48.3828 31.3336 48.3828 30.635C48.3828 29.9721 48.7982 29.4932 49.4672 29.4932C49.7852 29.4932 50.1323 29.637 50.3162 29.868L51.1608 29.3853C50.7795 28.8655 50.1679 28.534 49.4672 28.534C48.3082 28.534 47.372 29.4173 47.372 30.635C47.372 31.8535 48.3082 32.7368 49.4672 32.7368C50.2261 32.7368 50.88 32.3584 51.2501 31.7677L50.4459 31.3076L50.3908 31.2934Z" fill="white"/>
<path d="M52.4553 22.4134C52.2891 22.6904 51.919 22.8867 51.5317 22.8867C50.9032 22.8867 50.448 22.4536 50.448 21.7554C50.448 21.0926 50.863 20.6129 51.5317 20.6129C51.8505 20.6129 52.1968 20.7566 52.3815 20.9878L53.2253 20.5053C52.8448 19.9855 52.2326 19.6543 51.5317 19.6543C50.3728 19.6543 49.4373 20.5376 49.4373 21.7554C49.4373 22.9735 50.3728 23.8567 51.5317 23.8567C52.2906 23.8567 52.9453 23.478 53.3147 22.8875L52.4553 22.4134Z" fill="white"/>
<path d="M33.6011 22.4151C33.435 22.6923 33.0647 22.8886 32.6775 22.8886C32.0489 22.8886 31.5939 22.4554 31.5939 21.7571C31.5939 21.0943 32.0087 20.6151 32.6775 20.6151C32.9963 20.6151 33.3427 20.7585 33.5273 20.9897L34.3711 20.507C33.9905 19.9872 33.3784 19.6562 32.6775 19.6562C31.5185 19.6562 30.583 20.5394 30.583 21.7571C30.583 22.9753 31.5185 23.8589 32.6775 23.8589C33.4364 23.8589 34.0903 23.4802 34.4605 22.8897L33.6011 22.4151Z" fill="white"/>
<path d="M64.0098 31.2925C63.8438 31.5696 63.4735 31.7662 63.0864 31.7662C62.457 31.7662 62.0018 31.3326 62.0018 30.6348C62.0018 29.972 62.4175 29.493 63.0864 29.493C63.4043 29.493 63.7506 29.6368 63.9361 29.8678L64.7792 29.3851C64.3985 28.8653 63.7864 28.5338 63.0864 28.5338C61.9274 28.5338 60.9912 29.4172 60.9912 30.6348C60.9912 31.8533 61.9274 32.7358 63.0864 32.7358C63.8445 32.7358 64.4991 32.3582 64.8693 31.7669L64.0098 31.2925Z" fill="white"/>
<path d="M15.7465 0.000148773V7.63259H8.11374V15.2653H0.481445V27.4563H5.03981V19.8235H12.672V12.1908H20.3048V4.55862H27.9371V0.000148773H15.7465Z" fill="white"/>
</g>
<defs>
<clipPath id="clip0_1_402">
<rect width="82.7951" height="42.26" fill="white" transform="translate(0.481445)"/>
</clipPath>
</defs>
</svg>
