<svg width="92" height="36" viewBox="0 0 92 36" fill="none" xmlns="http://www.w3.org/2000/svg">
<g clip-path="url(#clip0_168_2862)">
<rect width="91.4195" height="35.3604" transform="translate(0.525391 0.449707)" fill="#EFEFEF"/>
<path d="M36.6314 0.48962V18.1685L18.6093 35.8101V18.0902L9.55662 26.9531L0.525391 18.1132L18.569 0.449673L36.6314 0.48962Z" fill="#121213"/>
<path d="M40.7651 0.578148H42.2907L44.3332 5.458H44.4131L46.4556 0.578148H47.9811V7.31274H46.7856V2.68611H46.7215L44.819 7.2927H43.9268L42.0243 2.67615H41.9606V7.31274H40.7651V0.578148Z" fill="#040606"/>
<path d="M54.2336 3.94531C54.2336 3.4353 54.1521 3.00403 53.99 2.65152C53.827 2.30002 53.6035 2.03327 53.3167 1.85229C53.0289 1.67182 52.6994 1.58069 52.325 1.58069C51.9517 1.58069 51.6205 1.67182 51.3338 1.85229C51.0476 2.03327 50.8234 2.30002 50.6604 2.65152C50.499 3.00403 50.4175 3.4353 50.4175 3.94531C50.4175 4.45635 50.499 4.88762 50.6604 5.24001C50.8234 5.5915 51.0476 5.85876 51.3338 6.03923C51.6205 6.21971 51.9517 6.30943 52.325 6.30943C52.6994 6.30943 53.0289 6.21971 53.3167 6.03923C53.6035 5.85876 53.827 5.5915 53.99 5.24001C54.1521 4.88762 54.2336 4.45635 54.2336 3.94531ZM55.4865 3.94531C55.4865 4.67166 55.3479 5.29297 55.0713 5.80848C54.7948 6.32449 54.4185 6.71977 53.9432 6.99405C53.467 7.2682 52.927 7.40527 52.325 7.40527C51.7225 7.40527 51.1841 7.2682 50.7078 6.99251C50.231 6.71734 49.8556 6.32245 49.5791 5.8049C49.3015 5.28889 49.1646 4.66975 49.1646 3.94531C49.1646 3.21986 49.3015 2.59919 49.5791 2.08317C49.8556 1.56716 50.231 1.17176 50.7078 0.897607C51.1841 0.623455 51.7225 0.486252 52.325 0.486252C52.927 0.486252 53.467 0.623455 53.9432 0.897607C54.4185 1.17176 54.7948 1.56716 55.0713 2.08317C55.3479 2.59919 55.4865 3.21986 55.4865 3.94531Z" fill="#040606"/>
<path d="M62.5589 2.851H61.3023C61.2662 2.64909 61.2 2.46951 61.1032 2.31253C61.008 2.15694 60.8883 2.02331 60.7441 1.91368C60.602 1.80404 60.439 1.72172 60.2551 1.66544C60.0734 1.60953 59.8772 1.58069 59.6659 1.58069C59.293 1.58069 58.9605 1.67284 58.6716 1.85637C58.3823 2.03927 58.1571 2.30602 57.9927 2.65752C57.8297 3.01054 57.7482 3.43926 57.7482 3.94531C57.7482 4.46133 57.8297 4.89502 57.9952 5.24652C58.1597 5.59801 58.3858 5.86323 58.6736 6.04179C58.9614 6.22124 59.2915 6.30943 59.6633 6.30943C59.8685 6.30943 60.0621 6.28352 60.2429 6.22966C60.4222 6.17631 60.5851 6.09654 60.7294 5.99035C60.874 5.88569 60.9968 5.75602 61.096 5.60299C61.1949 5.44945 61.2642 5.27396 61.3023 5.07702L62.5589 5.08302C62.5121 5.40363 62.4103 5.70369 62.2543 5.98435C62.0995 6.26514 61.8952 6.51287 61.6446 6.72576C61.3941 6.94018 61.1012 7.10623 60.765 7.22582C60.4283 7.34554 60.0555 7.40527 59.6454 7.40527C59.042 7.40527 58.502 7.2682 58.0272 6.99405C57.5521 6.71977 57.1777 6.32449 56.9052 5.80746C56.6311 5.28991 56.4951 4.66975 56.4951 3.94531C56.4951 3.21986 56.6327 2.59919 56.9077 2.08317C57.1842 1.56716 57.5587 1.17176 58.0334 0.897607C58.5086 0.623455 59.046 0.486252 59.6454 0.486252C60.029 0.486252 60.385 0.538706 60.7141 0.644896C61.0436 0.749553 61.3365 0.904115 61.5953 1.10603C61.8519 1.30896 62.0648 1.55721 62.2319 1.84884C62.3985 2.14201 62.507 2.47602 62.5589 2.851Z" fill="#040606"/>
<path d="M40.7651 18.4241V11.6901H43.3451C43.8732 11.6901 44.3179 11.7862 44.6769 11.9792C45.036 12.1722 45.308 12.4364 45.4929 12.7729C45.6773 13.11 45.7705 13.4924 45.7705 13.9196C45.7705 14.3508 45.6773 14.7353 45.4919 15.0703C45.3061 15.4058 45.032 15.6695 44.6694 15.8605C44.3062 16.0524 43.8595 16.1482 43.3283 16.1482H41.6183V15.1466H43.1602C43.4699 15.1466 43.7214 15.0928 43.9191 14.988C44.1168 14.8833 44.2629 14.7373 44.3581 14.5543C44.4529 14.3699 44.5013 14.1579 44.5013 13.9196C44.5013 13.6803 44.4529 13.4699 44.3581 13.2879C44.2629 13.1059 44.1168 12.9639 43.9175 12.8616C43.7194 12.7604 43.4648 12.7096 43.1541 12.7096H42.0116V18.4241H40.7651Z" fill="#040606"/>
<path d="M47.0178 15.7833H50.6453V16.7638H47.0178V15.7833ZM46.9745 18.4241H45.6436L48.0655 11.6901H49.6052L52.0292 18.4241H50.7003L48.8626 13.0711H48.8075L46.9745 18.4241Z" fill="#040606"/>
<path d="M55.3377 18.5171C54.8538 18.5171 54.4244 18.4358 54.05 18.2738C53.6746 18.1102 53.3777 17.8849 53.1613 17.5957C52.9438 17.3065 52.8286 16.9725 52.8149 16.5927H54.0781C54.0898 16.7745 54.1509 16.9341 54.2624 17.0682C54.375 17.2034 54.5237 17.3075 54.7097 17.3823C54.8956 17.4561 55.1033 17.4935 55.3352 17.4935C55.5807 17.4935 55.7996 17.4521 55.9896 17.3679C56.1801 17.2832 56.3294 17.166 56.4363 17.0138C56.5433 16.8629 56.5969 16.6884 56.5942 16.4915C56.5969 16.287 56.5433 16.1075 56.4328 15.9514C56.3233 15.7959 56.1654 15.6747 55.9575 15.5865C55.7502 15.4992 55.5017 15.4555 55.2104 15.4555H54.6028V14.5146H55.2104C55.4498 14.5146 55.6596 14.4748 55.8404 14.3924C56.0203 14.3118 56.1628 14.1965 56.2647 14.05C56.3676 13.9014 56.4185 13.7294 56.416 13.535C56.4185 13.3444 56.3752 13.1785 56.2876 13.0363C56.1985 12.8953 56.0737 12.7847 55.9142 12.7059C55.7539 12.6275 55.5664 12.5877 55.3515 12.5877C55.1401 12.5877 54.9454 12.6251 54.7672 12.6999C54.5874 12.7747 54.4438 12.8794 54.3327 13.0164C54.2232 13.1535 54.1662 13.3171 54.1585 13.505H52.9585C52.9678 13.1286 53.0798 12.797 53.2937 12.5104C53.5076 12.2237 53.7943 12.0009 54.152 11.8398C54.51 11.6789 54.9124 11.5981 55.3581 11.5981C55.8175 11.5981 56.2164 11.6818 56.556 11.8499C56.8948 12.0168 57.157 12.2422 57.343 12.5253C57.5289 12.808 57.6221 13.1197 57.6221 13.4626C57.6246 13.8416 57.511 14.1591 57.2818 14.4164C57.0517 14.6732 56.7506 14.8397 56.3794 14.9194V14.9717C56.8632 15.0381 57.2345 15.2126 57.4933 15.4968C57.752 15.7799 57.8803 16.1324 57.8778 16.5537C57.8778 16.9301 57.7683 17.2682 57.5508 17.5648C57.3312 17.8609 57.0313 18.0942 56.6503 18.2637C56.2683 18.4323 55.8303 18.5171 55.3377 18.5171Z" fill="#040606"/>
<path d="M60.348 17.4051H61.6876C62.1409 17.4051 62.4669 17.3203 62.6665 17.1508C62.8677 16.9798 62.9686 16.7619 62.9686 16.4936C62.9686 16.2943 62.9176 16.1147 62.8174 15.9527C62.7164 15.7917 62.5729 15.6646 62.3869 15.5714C62.2005 15.4791 61.9795 15.4318 61.7217 15.4318H60.348V17.4051ZM60.348 14.5543H61.5806C61.7961 14.5543 61.9896 14.5154 62.1612 14.4371C62.3344 14.3598 62.4709 14.2486 62.5697 14.1055C62.6696 13.9609 62.719 13.7914 62.719 13.5936C62.719 13.3329 62.6263 13.1184 62.4388 12.9489C62.252 12.7803 61.9754 12.6956 61.6071 12.6956H60.348V14.5543ZM59.1016 18.4241V11.6901H61.735C62.2326 11.6901 62.6467 11.7658 62.9762 11.9179C63.3073 12.0699 63.5543 12.2784 63.7189 12.541C63.8838 12.8043 63.9653 13.1025 63.9653 13.436C63.9653 13.7108 63.9119 13.9436 63.8055 14.138C63.697 14.3325 63.5528 14.4895 63.371 14.6101C63.1902 14.7303 62.9864 14.8171 62.7638 14.8699V14.9357C63.0068 14.9482 63.2426 15.0214 63.4662 15.1535C63.6919 15.2871 63.8768 15.4741 64.0193 15.715C64.163 15.9562 64.2343 16.2469 64.2343 16.5894C64.2343 16.9374 64.1478 17.2515 63.976 17.5282C63.8039 17.8058 63.5442 18.0242 63.1968 18.1837C62.8489 18.3443 62.4118 18.4241 61.8862 18.4241H59.1016Z" fill="#040606"/>
<path d="M65.3193 11.6901H66.556V16.2802H66.6197L69.855 11.6901H70.973V18.4241H69.7267V13.8379H69.6691L66.4247 18.4241H65.3193V11.6901Z" fill="#040606"/>
<path d="M72.0234 12.7121V11.6901H77.5132V12.7121H75.3867V18.4241H74.1514V12.7121H72.0234Z" fill="#040606"/>
<path d="M78.5688 11.6901H79.8051V16.2802H79.8687L83.1047 11.6901H84.2227V18.4241H82.9757V13.8379H82.9188L79.6742 18.4241H78.5688V11.6901Z" fill="#040606"/>
<path d="M85.5762 18.4241V11.6901H90.0507V12.7121H86.8225V14.5408H89.819V15.5639H86.8225V17.4011H90.0772V18.4241H85.5762Z" fill="#040606"/>
<path d="M14.7538 26.8739V35.8101H4.4375V26.8739L9.59617 31.9233L14.7538 26.8739Z" fill="#121213"/>
</g>
<defs>
<clipPath id="clip0_168_2862">
<rect width="91.4195" height="35.3604" fill="white" transform="translate(0.525391 0.449707)"/>
</clipPath>
</defs>
</svg>
