<svg width="84" height="43" viewBox="0 0 84 43" fill="none" xmlns="http://www.w3.org/2000/svg">
<g clip-path="url(#clip0_168_2829)">
<rect width="82.7951" height="42.26" transform="translate(0.481445)" fill="#EFEFEF"/>
<path d="M21.0614 22.7905C21.0614 21.8331 21.0272 21.3592 21.0331 21.3592H21.0387C21.0444 21.3592 21.368 21.9131 21.4018 21.9709L21.875 22.7786H22.3767L22.8507 21.9709C22.8858 21.9131 23.2083 21.3592 23.215 21.3592H23.2198C23.2265 21.3592 23.1918 21.8331 23.1918 22.7905V23.7769H24.1434V19.737H23.2321L22.4761 20.9603C22.1816 21.4404 22.1358 21.5434 22.129 21.5434H22.1239C22.1172 21.5434 22.0717 21.4404 21.778 20.9603L21.0208 19.737H20.1099V23.7769H21.0614V22.7905Z" fill="#24272A"/>
<path d="M27.4212 22.9009C26.7691 22.9009 26.3364 22.4324 26.3364 21.7572C26.3364 21.0758 26.7691 20.6137 27.4212 20.6137C28.0782 20.6137 28.5123 21.0758 28.5123 21.7572C28.5123 22.4324 28.0782 22.9009 27.4212 22.9009ZM27.4212 19.6563C26.2616 19.6563 25.3262 20.5395 25.3262 21.7572C25.3262 22.9739 26.2616 23.8574 27.4212 23.8574C28.5808 23.8574 29.5222 22.9739 29.5222 21.7572C29.5222 20.5395 28.5808 19.6563 27.4212 19.6563Z" fill="#24272A"/>
<path d="M42.0143 20.6137C42.6735 20.6137 43.1062 21.0758 43.1062 21.7572C43.1062 22.4324 42.6735 22.9009 42.0143 22.9009C41.3633 22.9009 40.9307 22.4324 40.9307 21.7572C40.9307 21.0758 41.3633 20.6137 42.0143 20.6137ZM42.0143 23.8574C43.1747 23.8574 44.1145 22.9739 44.1145 21.7572C44.1145 20.5395 43.1747 19.6563 42.0143 19.6563C40.8554 19.6563 39.9199 20.5395 39.9199 21.7572C39.9199 22.9739 40.8554 23.8574 42.0143 23.8574Z" fill="#24272A"/>
<path d="M46.2676 22.9637V22.0511H46.9425C47.2485 22.0511 47.469 22.2246 47.469 22.5069C47.469 22.773 47.2664 22.9637 46.9425 22.9637H46.2676ZM46.2676 20.5506H46.8501C47.1108 20.5506 47.3007 20.7126 47.3007 20.9316C47.3007 21.1506 47.1108 21.3125 46.8501 21.3125H46.2676V20.5506ZM48.4841 22.553C48.4841 22.1434 48.1556 21.7055 47.7743 21.6004V21.5956C48.0171 21.5087 48.2764 21.1859 48.2764 20.8046C48.2764 20.2163 47.7743 19.737 47.0526 19.737H45.2979V23.7769H47.0423C48.0395 23.7769 48.4841 23.2294 48.4841 22.553Z" fill="#24272A"/>
<path d="M66.035 22.6525C66.4052 22.1434 66.9473 21.3762 66.9518 21.3762H66.9585C66.9646 21.3762 66.9518 21.9992 66.9518 22.8822V23.7769H67.9223V19.737H67.0114L66.1504 20.8911C65.8906 21.2381 65.2738 22.1087 65.2671 22.1087H65.2612C65.2568 22.1087 65.2671 21.394 65.2671 20.6612V19.737H64.2988V23.7769H65.2097L66.035 22.6525Z" fill="#24272A"/>
<path d="M60.9337 22.6525C61.3031 22.1434 61.8453 21.3762 61.8513 21.3762H61.8572C61.8631 21.3762 61.8513 21.9992 61.8513 22.8822V23.7769H62.8217V19.737H61.9101L61.0492 20.8911C60.7892 21.2381 60.1726 22.1087 60.1673 22.1087H60.1606C60.1553 22.1087 60.1673 21.394 60.1673 20.6612V19.737H59.1968V23.7769H60.1092L60.9337 22.6525Z" fill="#24272A"/>
<path d="M23.5605 37.4942H22.5901V40.5642L22.5891 40.6297L22.5711 40.6268H21.0789V37.4942H20.1099V41.5332H21.0789H22.5711H22.5901H23.5605H23.5665V42.26H24.4432V41.5332H24.446V40.5642H23.5605V37.4942Z" fill="#24272A"/>
<path d="M32.4801 39.0575H30.968V37.4943H29.999V41.5332H30.968V39.9632H32.4801V41.5332H33.4498V37.4943H32.4801V39.0575Z" fill="#24272A"/>
<path d="M34.5352 38.3991H35.7461V41.5332H36.7158V38.3991H37.9447V37.4943H34.5352V38.3991Z" fill="#24272A"/>
<path d="M21.0789 29.5215H22.5901V32.6555H23.5605V28.615H22.5901H21.0789H20.1099V32.6555H21.0789V29.5215Z" fill="#24272A"/>
<path d="M30.133 30.635C30.133 29.955 30.5663 29.4932 31.218 29.4932C31.8763 29.4932 32.3083 29.955 32.3083 30.635C32.3083 31.3106 31.8763 31.7783 31.218 31.7783C30.5663 31.7783 30.133 31.3106 30.133 30.635ZM33.3182 30.635C33.3182 29.4173 32.3798 28.534 31.218 28.534C30.0581 28.534 29.123 29.4173 29.123 30.635C29.123 31.8535 30.0581 32.7368 31.218 32.7368C32.3798 32.7368 33.3182 31.8535 33.3182 30.635Z" fill="#24272A"/>
<path d="M78.6211 27.1224H77.0303V27.9641H78.6211V27.1224Z" fill="#24272A"/>
<path d="M44.3445 31.7783C43.6928 31.7783 43.2594 31.3106 43.2594 30.635C43.2594 29.955 43.6928 29.4932 44.3445 29.4932C45.0021 29.4932 45.4349 29.955 45.4349 30.635C45.4349 31.3106 45.0021 31.7783 44.3445 31.7783ZM44.3445 28.534C43.3375 28.534 42.5019 29.2199 42.2979 30.1927H41.4846V28.6151H40.5156V32.6557H41.4846V31.1065H42.3083C42.5272 32.0538 43.3532 32.7368 44.3445 32.7368C45.5041 32.7368 46.4448 31.8535 46.4448 30.635C46.4448 29.4173 45.5041 28.534 44.3445 28.534Z" fill="#24272A"/>
<path d="M55.4796 31.749H53.4756V31.0333H54.9197V30.2126H53.4756V29.5215H55.4441V28.615H52.5073V32.6555H55.4796V31.749Z" fill="#24272A"/>
<path d="M28.5666 40.6275H26.5628V39.9111H28.0073V39.0911H26.5628V38.3999H28.5312V37.4928H25.5942V41.5332H28.5666V40.6275Z" fill="#24272A"/>
<path d="M58.4345 30.6415H57.8796V29.5215H58.4345C58.8084 29.5215 59.034 29.7583 59.034 30.0591C59.034 30.3593 58.8426 30.6423 58.4688 30.6423L58.4345 30.6415ZM58.4509 28.615H56.9092V32.6555H57.8796V31.5479H58.4509C59.4437 31.5479 60.044 30.8665 60.044 30.0011C60.044 29.1349 59.4437 28.615 58.4509 28.615Z" fill="#24272A"/>
<path d="M26.554 30.65H25.9992V29.5298H26.554C26.928 29.5298 27.1541 29.7659 27.1541 30.0668C27.1541 30.3669 26.9622 30.65 26.5883 30.65H26.554ZM26.5697 28.6227H25.0283V32.6631H25.9992V31.5556H26.5697C27.5633 31.5556 28.1632 30.8741 28.1632 30.0087C28.1632 29.1425 27.5633 28.6227 26.5697 28.6227Z" fill="#24272A"/>
<path d="M40.5579 39.5229H40.003V38.4035H40.5579C40.9317 38.4035 41.1574 38.6396 41.1574 38.9405C41.1574 39.2406 40.9661 39.5237 40.5921 39.5237L40.5579 39.5229ZM40.5735 37.4964H39.0317V41.5376H40.003V40.4293H40.5735C41.5671 40.4293 42.1674 39.7479 42.1674 38.8824C42.1674 38.0163 41.5671 37.4964 40.5735 37.4964Z" fill="#24272A"/>
<path d="M69.686 28.615H68.4973L67.5805 29.5862C67.1701 29.9959 67.083 30.1389 67.0777 30.1389H67.0726C67.0658 30.1389 67.083 29.9437 67.083 29.2734V28.615H66.1147V32.6555H67.083V31.3172L67.4241 30.9752L68.6478 32.6555H69.7902L68.0654 30.3347L69.686 28.615Z" fill="#24272A"/>
<path d="M58.1253 19.7314H56.9374L56.0205 20.703C55.6101 21.1126 55.523 21.2549 55.5178 21.2549H55.5126C55.5059 21.2549 55.5229 21.0597 55.5229 20.3898V19.7314H54.5547V23.7717H55.5229V22.4331L55.8641 22.0916L57.0877 23.7717H58.2296L56.5053 21.4511L58.1253 19.7314Z" fill="#24272A"/>
<path d="M39.2843 19.7482H38.0964L37.1795 20.7201C36.7684 21.1294 36.682 21.2721 36.6769 21.2721H36.6716C36.6648 21.2721 36.682 21.0769 36.682 20.4066V19.7482H35.7139V23.7888H36.682V22.4503L37.0231 22.1088L38.2469 23.7888H39.3886L37.6637 21.4684L39.2843 19.7482Z" fill="#24272A"/>
<path d="M78.7341 28.615L77.8746 29.7687C77.6153 30.1164 76.9964 30.988 76.9919 30.988H76.986C76.9793 30.988 76.9919 30.2722 76.9919 29.5386V28.615H76.0215V32.6555H76.9346L77.7591 31.5301C78.1286 31.0229 78.6715 30.2544 78.6759 30.2544H78.6819C78.6885 30.2544 78.6759 30.8776 78.6759 31.7611V32.6555H79.6457V28.615H78.7341Z" fill="#24272A"/>
<path d="M66.9009 18.2444H65.3101V19.0864H66.9009V18.2444Z" fill="#24272A"/>
<path d="M67.0142 19.7372L66.1547 20.8912C65.8949 21.2386 65.2767 22.1096 65.2722 22.1096H65.2656C65.2596 22.1096 65.2722 21.3942 65.2722 20.6607V19.7372H64.3018V23.7778H65.2141L66.0393 22.6523C66.4087 22.145 66.9509 21.3763 66.9561 21.3763H66.9622C66.9681 21.3763 66.9561 21.9998 66.9561 22.8832V23.7778H67.9259V19.7372H67.0142Z" fill="#24272A"/>
<path d="M72.7725 29.7687C72.5148 30.1164 71.8973 30.988 71.8915 30.988H71.8855C71.8787 30.988 71.8915 30.2722 71.8915 29.5386V28.615H70.9209V32.6555H71.8341L72.6586 31.5301C73.0279 31.0229 73.5702 30.2544 73.576 30.2544H73.5813C73.5889 30.2544 73.576 30.8776 73.576 31.7611V32.6555H74.5466V28.615H73.6334L72.7725 29.7687Z" fill="#24272A"/>
<path d="M37.5199 31.749H36.2657V31.6858L36.4466 29.4522H37.5199V31.6858V31.749ZM38.5105 31.6858V28.615H35.4562L35.2751 31.6858H34.2949V32.6555H34.2987V33.5193H35.2685V32.6555H35.2751H35.2952H36.2455H36.2657H37.3381H37.359H38.3079H38.3294H38.3346V33.5193H39.3044V32.6555H39.3089V31.6858H38.5105Z" fill="#24272A"/>
<path d="M50.3909 31.2934C50.224 31.5705 49.8545 31.7671 49.4672 31.7671C48.8379 31.7671 48.3829 31.3336 48.3829 30.635C48.3829 29.9721 48.7983 29.4932 49.4672 29.4932C49.7852 29.4932 50.1324 29.637 50.3162 29.868L51.1609 29.3853C50.7796 28.8655 50.168 28.534 49.4672 28.534C48.3083 28.534 47.3721 29.4173 47.3721 30.635C47.3721 31.8535 48.3083 32.7368 49.4672 32.7368C50.2262 32.7368 50.8801 32.3584 51.2502 31.7677L50.4459 31.3076L50.3909 31.2934Z" fill="#24272A"/>
<path d="M52.4555 22.4134C52.2893 22.6904 51.9192 22.8867 51.5319 22.8867C50.9033 22.8867 50.4482 22.4536 50.4482 21.7554C50.4482 21.0926 50.8632 20.6129 51.5319 20.6129C51.8507 20.6129 52.197 20.7566 52.3817 20.9878L53.2255 20.5053C52.845 19.9855 52.2327 19.6543 51.5319 19.6543C50.373 19.6543 49.4375 20.5376 49.4375 21.7554C49.4375 22.9735 50.373 23.8567 51.5319 23.8567C52.2908 23.8567 52.9455 23.478 53.3149 22.8875L52.4555 22.4134Z" fill="#24272A"/>
<path d="M33.6011 22.4151C33.435 22.6923 33.0647 22.8886 32.6775 22.8886C32.0489 22.8886 31.5939 22.4554 31.5939 21.7571C31.5939 21.0943 32.0087 20.6151 32.6775 20.6151C32.9963 20.6151 33.3427 20.7585 33.5273 20.9897L34.3711 20.507C33.9905 19.9872 33.3784 19.6562 32.6775 19.6562C31.5185 19.6562 30.583 20.5394 30.583 21.7571C30.583 22.9753 31.5185 23.8589 32.6775 23.8589C33.4364 23.8589 34.0903 23.4802 34.4605 22.8897L33.6011 22.4151Z" fill="#24272A"/>
<path d="M64.0098 31.2925C63.8438 31.5696 63.4735 31.7662 63.0864 31.7662C62.4569 31.7662 62.0018 31.3326 62.0018 30.6348C62.0018 29.972 62.4175 29.493 63.0864 29.493C63.4043 29.493 63.7506 29.6368 63.9361 29.8678L64.7792 29.3851C64.3985 28.8653 63.7863 28.5338 63.0864 28.5338C61.9274 28.5338 60.9912 29.4172 60.9912 30.6348C60.9912 31.8533 61.9274 32.7358 63.0864 32.7358C63.8445 32.7358 64.4991 32.3582 64.8693 31.7669L64.0098 31.2925Z" fill="#24272A"/>
<path d="M15.7465 0.000148773V7.63259H8.11374V15.2653H0.481445V27.4563H5.03981V19.8235H12.672V12.1908H20.3048V4.55862H27.9371V0.000148773H15.7465Z" fill="#24272A"/>
</g>
<defs>
<clipPath id="clip0_168_2829">
<rect width="82.7951" height="42.26" fill="white" transform="translate(0.481445)"/>
</clipPath>
</defs>
</svg>
