<svg width="43" height="43" viewBox="0 0 43 43" fill="none" xmlns="http://www.w3.org/2000/svg">
<g clip-path="url(#clip0_1_344)">
<rect width="42.26" height="42.26" fill="#010938"/>
<path d="M21.9983 2.28209V2.83911H22.5378V1.72507H21.9983V2.28209Z" fill="white"/>
<path d="M21.9984 5.23542V7.01009H21.4846V7.68364H21.3048V8.46088H21.4846V9.73059H21.7672V10.3445C21.7672 10.684 21.7595 10.987 21.7517 11.018C21.7364 11.0725 21.7209 11.0777 21.4614 11.0829L21.1892 11.0907L21.1814 11.3549L21.1737 11.6217H21.7415V11.9404C21.7415 12.1168 21.7338 12.4042 21.7236 12.5751L21.7081 12.8912H21.1737L21.1814 13.1554L21.1892 13.4225L21.4563 13.4303L21.7236 13.4381L21.7081 13.7513C21.6979 13.9251 21.6901 14.2023 21.6901 14.3732V14.6789H21.1763V15.223H21.6901L21.6773 15.3188C21.6722 15.3733 21.6593 15.9847 21.649 16.6765L21.6336 17.9356L21.3073 18.5807L20.9837 19.2258L20.5932 19.2336C20.3773 19.2361 20.2001 19.2309 20.2001 19.2232C20.2001 19.0807 19.6529 11.8265 19.6349 11.7202C19.5552 11.2799 19.3163 10.8497 18.9747 10.5336C18.6304 10.215 18.1089 9.96379 17.626 9.88849L17.5027 9.8679V17.6065H17.2278L17.2123 14.1038C17.2021 12.1788 17.1944 9.41453 17.1944 7.96348V5.32609H17.0351C16.9452 5.32609 16.7344 5.34928 16.565 5.37795C15.2958 5.58509 14.4404 6.19662 14.1681 7.08774C13.8804 8.03617 13.6492 12.2307 13.5823 17.793L13.5643 19.2129H13.1867L13.1816 12.5207L13.1739 5.82871L12.3724 6.78471L11.5683 7.7407V9.74336L10.9003 10.4172V13.1296L10.664 13.3862L10.4251 13.6426L10.3994 17.2282L10.1887 17.3553L9.97548 17.4796V19.2414L9.79054 19.2336L9.60296 19.2258L9.59524 17.7024L9.59012 16.1816H9.94979V13.2281H9.59012L9.59524 12.1322L9.60296 11.0389L9.77767 11.031L9.94979 11.0232V7.96869H7.30371V10.6373H6.94406V13.6426H7.30371V15.793H6.94406V19.2414L6.7591 19.2336L6.57155 19.2258L6.5638 17.7671L6.55871 16.3111H5.35377L5.34614 16.5883L5.33842 16.8682H4.82463L4.81688 15.4743L4.81176 14.083H4.24659V12.1684L4.12588 12.1606L4.00253 12.153L3.99481 11.6139L3.98969 11.0777H3.11623V12.1658H2.88502V14.083H2.29415L2.28903 15.4743L2.28131 16.8682L2.02951 16.876L1.78035 16.8838V16.3111H0.580645L0.565182 16.7567C0.554956 17.0029 0.547228 17.6635 0.547228 18.2206V19.2388H0.0334272V19.5159C0.0334272 19.6714 0.02569 20.0134 0.0154642 20.2802L0 20.7673H42.1137V19.2388H41.266V18.3889L40.865 17.8578L40.4669 17.3242L40.3052 17.4978C40.2152 17.5936 40.1124 17.705 40.0765 17.749L40.0096 17.8268L40.0073 16.5729V15.3188L40.1483 15.1685C40.3488 14.9561 40.4258 14.7774 40.4132 14.5546C40.4002 14.3031 40.3232 14.2049 39.9019 13.8964C39.5755 13.6557 39.55 13.6426 39.429 13.6426C39.3058 13.6426 39.2828 13.6557 38.9462 13.9042C38.6583 14.1168 38.5788 14.1893 38.517 14.2982C38.363 14.5675 38.4323 14.8759 38.7097 15.1685C38.8356 15.3007 38.8511 15.3318 38.8511 15.4251V15.5339H37.952V13.7489L37.5409 12.6064C37.3148 11.9766 37.1298 11.4534 37.1298 11.4378C37.1298 11.4247 37.1813 11.4146 37.2404 11.4146C37.4972 11.4146 37.7541 11.2799 37.8672 11.0855C37.9212 10.9896 37.9313 10.9482 37.9212 10.8187C37.9083 10.6217 37.8465 10.5441 37.474 10.2434L37.1942 10.0154H37.0322C36.873 10.0154 36.8704 10.0154 36.634 10.2019C36.2152 10.5284 36.1537 10.6139 36.1537 10.8367C36.1537 11.0079 36.2385 11.1452 36.4183 11.2695C36.5467 11.3601 36.5878 11.3729 36.7521 11.3859C36.8524 11.3963 36.9345 11.4146 36.9322 11.4274C36.9293 11.443 36.7369 11.9586 36.503 12.5751L36.0765 13.6971V15.5339H35.2032V15.4251C35.2032 15.3293 35.2184 15.3007 35.3572 15.1556C35.6628 14.837 35.7142 14.5261 35.5138 14.2463C35.4729 14.1893 35.2854 14.0285 35.1004 13.8915C34.7792 13.6557 34.7536 13.6426 34.6327 13.6426C34.5121 13.6426 34.4862 13.6557 34.1858 13.8784C33.7181 14.2229 33.6181 14.3602 33.6411 14.6374C33.6566 14.8188 33.7414 14.9847 33.9083 15.1634L34.047 15.3137V16.5883C34.047 17.2905 34.0393 17.8656 34.0292 17.8656C34.0163 17.863 33.916 17.7464 33.8031 17.6039C33.6899 17.4614 33.5897 17.3371 33.5796 17.3319C33.5693 17.3267 33.3817 17.5599 33.1631 17.8527L32.7627 18.3812V19.2388H30.7074V18.0211H30.3991C30.0909 18.0211 30.0909 18.0211 30.1036 17.9614C30.1113 17.9304 30.4684 15.9795 30.9001 13.6296C31.3316 11.2773 31.6886 9.32881 31.6964 9.2978C31.7067 9.24856 31.6938 9.23813 31.5757 9.21494C31.3008 9.15788 31.3264 9.13729 31.2417 9.45856C30.7484 11.3213 29.9418 13.1945 29.0246 14.6012C27.8891 16.3422 26.5867 17.4667 25.0504 18.0314L24.9271 18.078V19.2388H23.5784L23.2495 18.5832L22.9233 17.9304L22.9104 17.1143C22.9027 16.6661 22.8898 16.0572 22.8821 15.7593L22.8668 15.223H23.36V14.6789H22.8796L22.8641 14.4251C22.8539 14.2878 22.8462 14.0079 22.8462 13.8031V13.4352H23.36V12.894L23.098 12.8862L22.8333 12.8784L22.8256 12.2486L22.8205 11.6217H23.36V11.0777H22.7948V10.6553C22.7948 10.4247 22.7871 10.1217 22.7769 9.98177L22.7614 9.73059H23.0774V8.46088H23.2572V7.68364H23.0774V7.01009H22.5379V3.46075H21.9984V5.23542Z" fill="white"/>
<path d="M16.7164 3.75369C16.7113 3.77182 16.7087 4.02572 16.7113 4.31589L16.7191 4.847L16.9837 4.85478L17.2457 4.86255V3.72001H16.9888C16.8039 3.72001 16.7268 3.73037 16.7164 3.75369Z" fill="white"/>
<path d="M31.6449 7.48169C31.6295 7.53091 31.4008 8.70196 31.4008 8.73564C31.4008 8.76673 31.7528 8.83927 31.7785 8.81336C31.7913 8.803 32.0431 7.57496 32.0431 7.52832C32.0431 7.51278 31.7553 7.4506 31.686 7.4506C31.6706 7.4506 31.65 7.46614 31.6449 7.48169Z" fill="white"/>
<path d="M36.77 9.10873V9.67871H37.3095V8.53876H36.77V9.10873Z" fill="white"/>
<path d="M3.29605 10.171V10.741H3.83554V9.60101H3.29605V10.171Z" fill="white"/>
<path d="M34.3603 12.728L34.368 13.2928L34.6326 13.3006L34.8947 13.3083V12.1658H34.3552L34.3603 12.728Z" fill="white"/>
<path d="M39.1849 12.7358V13.3083L39.4495 13.3006L39.7115 13.2928L39.7192 12.728L39.7244 12.1658H39.1849V12.7358Z" fill="white"/>
<path d="M0.906891 15.4173V15.9744H1.44638V14.8603H0.906891V15.4173Z" fill="white"/>
<path d="M5.71091 15.4173V15.9744H6.2504V14.8603H5.71091V15.4173Z" fill="white"/>
<path d="M25.0477 21.3063C24.9809 21.3736 24.927 21.4437 24.927 21.4591C24.927 21.5007 25.1146 21.6639 25.2404 21.7312C25.3972 21.8141 25.7388 21.8167 25.8904 21.7338C26.0188 21.6639 26.2115 21.498 26.2115 21.4566C26.2115 21.4229 25.9777 21.182 25.9443 21.182C25.9315 21.182 25.8724 21.2286 25.8107 21.2856C25.7105 21.3789 25.6849 21.3892 25.5693 21.3892C25.4536 21.3892 25.428 21.3789 25.3277 21.2856C25.2661 21.2286 25.207 21.182 25.1941 21.182C25.1788 21.182 25.1146 21.2389 25.0477 21.3063Z" fill="white"/>
<path d="M16.3645 21.9901C16.3234 22.0212 16.3209 22.1016 16.326 22.9306L16.3337 23.8374H16.8218L16.8296 23.5187L16.8372 23.2027H17.071C17.5026 23.2027 17.762 23.0758 17.8468 22.8218C17.9522 22.5083 17.8366 22.1922 17.5642 22.0549C17.4384 21.9901 17.1866 21.9591 16.7807 21.9591C16.5238 21.9591 16.3953 21.9694 16.3645 21.9901ZM17.2945 22.3917C17.3664 22.4513 17.3972 22.5731 17.369 22.6793C17.3381 22.7959 17.22 22.8451 16.9939 22.8348L16.8218 22.827L16.8141 22.586L16.8064 22.3477H17.0247C17.1917 22.3477 17.2534 22.358 17.2945 22.3917Z" fill="white"/>
<path d="M10.9054 22.042C10.8669 22.1431 10.8695 22.3658 10.9054 22.3917C10.9234 22.4022 11.0467 22.4176 11.1778 22.4254L11.4166 22.4384L11.4141 23.1535C11.4141 23.713 11.4192 23.8736 11.4449 23.8814C11.4628 23.8892 11.5605 23.897 11.6606 23.8995C11.7891 23.9048 11.8508 23.8944 11.8714 23.8685C11.8918 23.8452 11.9022 23.6172 11.9073 23.1353L11.915 22.4384L12.4545 22.4125L12.4623 22.2233C12.4674 22.0886 12.4596 22.0342 12.4366 22.0265C12.4185 22.0187 12.0717 22.0083 11.6659 21.998L10.926 21.9824L10.9054 22.042Z" fill="white"/>
<path d="M0.333962 22.0267C0.323737 22.037 0.31601 22.4489 0.31601 22.9437C0.31601 23.607 0.323737 23.8479 0.346807 23.8713C0.377604 23.9023 0.691001 23.9153 0.762953 23.8867C0.799001 23.8738 0.804119 23.8143 0.804119 23.5086V23.1484L0.899141 23.1562C0.991676 23.164 0.99928 23.1743 1.2048 23.5111C1.3204 23.7002 1.43089 23.8661 1.44885 23.8791C1.51059 23.9179 1.89843 23.9075 1.93185 23.8661C1.95754 23.8349 1.90879 23.7391 1.68268 23.3686L1.40009 22.91L1.65437 22.4904C1.79318 22.2598 1.90879 22.0551 1.90879 22.0396C1.90879 22.0189 1.8342 22.0111 1.64677 22.0162L1.38463 22.024L1.18173 22.366C0.983948 22.6976 0.97359 22.7106 0.891403 22.7106H0.806605L0.799001 22.366L0.791274 22.024L0.572909 22.0162C0.452187 22.0137 0.344186 22.0162 0.333962 22.0267Z" fill="white"/>
<path d="M3.00062 22.0342C2.99289 22.0498 3.10587 22.2856 3.25241 22.5601C3.39881 22.8348 3.55295 23.1249 3.59149 23.2L3.66082 23.3425L3.59398 23.4021C3.5426 23.4461 3.49122 23.4617 3.40904 23.4617C3.27285 23.4617 3.24716 23.5032 3.2549 23.7079C3.26263 23.9048 3.27285 23.9125 3.49384 23.8919C3.82519 23.866 3.94853 23.7778 4.10017 23.4747C4.21578 23.2389 4.709 22.0835 4.709 22.0471C4.709 22.0161 4.66535 22.0109 4.47268 22.0161L4.23623 22.0238L4.07186 22.4047C3.97933 22.6171 3.89977 22.7881 3.88941 22.7881C3.88181 22.7881 3.78665 22.6146 3.6814 22.4047L3.48873 22.0238L3.25241 22.0161C3.11111 22.0109 3.01084 22.0187 3.00062 22.0342Z" fill="white"/>
<path d="M5.87788 22.0421C5.87277 22.0602 5.86242 22.3038 5.8573 22.581C5.84184 23.239 5.78797 23.4127 5.59018 23.4749C5.53618 23.4905 5.53107 23.5059 5.53107 23.6821C5.53107 23.9023 5.54129 23.9101 5.74681 23.8764C6.1707 23.8065 6.29141 23.5863 6.31972 22.8323L6.33519 22.4256H6.81556V23.1148C6.81556 23.5396 6.82579 23.822 6.84125 23.8532C6.86432 23.8945 6.89775 23.9023 7.05451 23.9023C7.15727 23.9023 7.25479 23.892 7.27287 23.8816C7.29594 23.8635 7.30367 23.6589 7.29856 22.9411L7.29083 22.024L6.58947 22.0162C6.04225 22.0111 5.88811 22.0162 5.87788 22.0421Z" fill="white"/>
<path d="M8.60612 22.0265C8.5959 22.0368 8.58817 22.4565 8.58817 22.9592V23.8763L8.65488 23.8918C8.69093 23.9022 8.91178 23.9022 9.14823 23.897C9.52323 23.8866 9.59519 23.8763 9.71341 23.8244C9.96507 23.713 10.1013 23.4747 10.0704 23.1923C10.0319 22.8167 9.80844 22.6586 9.31771 22.6586H9.07877L9.07116 22.3399L9.06343 22.0238L8.84506 22.016C8.72435 22.0135 8.61635 22.016 8.60612 22.0265ZM9.49505 23.0731C9.57972 23.1405 9.60292 23.2518 9.55403 23.3659C9.50527 23.485 9.44878 23.5135 9.24575 23.5135H9.07627V23.0213H9.25348C9.38967 23.0213 9.44367 23.0316 9.49505 23.0731Z" fill="white"/>
<path d="M13.5977 22.0524C13.5977 22.073 13.7467 22.371 13.9317 22.7131L14.263 23.3374L14.2014 23.3996C14.1578 23.4436 14.1115 23.4618 14.0369 23.4618C13.8624 23.4618 13.8546 23.4721 13.8546 23.682C13.8546 23.853 13.8597 23.8736 13.9085 23.8892C13.9727 23.91 14.2734 23.8814 14.3684 23.8452C14.4737 23.8064 14.5996 23.6664 14.6895 23.4877C14.8333 23.1975 15.2933 22.1145 15.2933 22.0627C15.2933 22.0161 15.2753 22.0109 15.0672 22.0109H14.8411L14.6639 22.4151L14.4891 22.8192L14.2836 22.4151L14.0807 22.0109H13.8392C13.6387 22.0109 13.5977 22.0187 13.5977 22.0524Z" fill="white"/>
<path d="M18.9309 22.0499C18.9027 22.125 18.9129 23.7987 18.9412 23.8532C18.9643 23.8945 18.9977 23.9023 19.1468 23.9023C19.419 23.9023 19.4037 23.9256 19.4037 23.5111V23.151H20.0716V23.5111C20.0716 23.8143 20.0767 23.8738 20.1126 23.8867C20.1846 23.9153 20.498 23.9023 20.5289 23.8713C20.5648 23.8349 20.5725 22.0991 20.5365 22.0421C20.5237 22.0188 20.4569 22.011 20.3002 22.0162L20.0844 22.024L20.0767 22.366L20.069 22.7106H19.4061L19.3985 22.366L19.3908 22.024L19.1698 22.0162C18.9849 22.011 18.9437 22.0162 18.9309 22.0499Z" fill="white"/>
<path d="M21.5873 22.9411C21.5873 23.765 21.5924 23.8738 21.6283 23.8867C21.6952 23.9126 22.3066 23.905 22.4864 23.8738C22.6944 23.8402 22.8512 23.7495 22.9437 23.6122C23.0027 23.5215 23.0156 23.4722 23.0208 23.2935C23.0284 23.1199 23.0208 23.0629 22.9797 22.9799C22.8667 22.7572 22.7125 22.6795 22.3323 22.6587L22.0625 22.6458L22.0548 22.3271L22.0471 22.011H21.5873V22.9411ZM22.4736 23.0862C22.548 23.1588 22.5584 23.2935 22.4993 23.4074C22.453 23.5007 22.4171 23.5137 22.2141 23.5137H22.0497V23.0214H22.2295C22.3888 23.0214 22.4196 23.0292 22.4736 23.0862Z" fill="white"/>
<path d="M23.2468 22.0499C23.2186 22.125 23.2288 23.7987 23.2572 23.8532C23.2802 23.8945 23.3136 23.9023 23.4857 23.9023C23.6245 23.9023 23.6964 23.892 23.717 23.8661C23.7375 23.8427 23.7453 23.5733 23.7401 22.9282L23.7324 22.024L23.4986 22.0162C23.3008 22.0111 23.2596 22.0162 23.2468 22.0499Z" fill="white"/>
<path d="M24.7111 22.0499C24.6829 22.125 24.6932 23.7987 24.7215 23.8532C24.7445 23.8945 24.778 23.9023 24.9142 23.9023C25.0041 23.9023 25.094 23.8945 25.1171 23.8867C25.1376 23.8791 25.3277 23.6303 25.5358 23.3375L25.916 22.8039L25.9237 23.3194C25.9263 23.6459 25.9392 23.8454 25.9571 23.8686C25.9905 23.905 26.3296 23.9153 26.3862 23.8816C26.4093 23.8635 26.417 23.6589 26.4118 22.9411L26.4041 22.024H25.9726L25.5846 22.5837L25.1967 23.1459L25.1839 22.5837L25.171 22.024L24.9501 22.0162C24.7651 22.0111 24.724 22.0162 24.7111 22.0499Z" fill="white"/>
<path d="M29.808 22.9409C29.808 23.7648 29.8132 23.8736 29.8491 23.8866C29.8723 23.8944 30.1703 23.9022 30.5145 23.9022H31.1414L31.1491 24.0757L31.1568 24.2519L31.3726 24.2597C31.5293 24.2649 31.5961 24.2571 31.6089 24.2338C31.6449 24.1793 31.6372 23.5291 31.6012 23.4928C31.5832 23.4747 31.537 23.4617 31.4984 23.4617H31.4265L31.4214 22.7415L31.4137 22.0238H30.9512L30.9435 22.7415L30.9384 23.4617H30.2705V22.0109H29.808V22.9409Z" fill="white"/>
<path d="M32.6596 22.9436V23.8763L32.7187 23.8892C32.7496 23.897 33.0578 23.8995 33.4046 23.897L34.034 23.8892L34.0418 23.7001L34.0495 23.5135H33.1221V23.1249L33.5408 23.1198L33.957 23.112L33.9647 22.9358L33.9724 22.7622H33.1195L33.1349 22.3892L33.5459 22.3917C33.772 22.3917 33.9775 22.3814 34.0032 22.3684C34.0418 22.3477 34.0469 22.3166 34.0418 22.1844L34.034 22.0238L33.3481 22.016L32.6596 22.0109V22.9436Z" fill="white"/>
<path d="M35.298 22.0265C35.2877 22.0368 35.28 22.4487 35.28 22.9436C35.28 23.6069 35.2877 23.8477 35.3109 23.8711C35.3288 23.8892 35.4162 23.9022 35.5241 23.9022C35.632 23.9022 35.7193 23.8892 35.7373 23.8711C35.7579 23.8504 35.7681 23.7286 35.7681 23.4955V23.1509H36.4361V23.5109C36.4361 23.9203 36.4258 23.9022 36.6673 23.9022C36.9216 23.9022 36.8985 23.9955 36.8985 22.9409V22.0109H36.4361V22.7104H35.7707L35.763 22.3658L35.7553 22.0239L35.5369 22.0161C35.4162 22.0135 35.3083 22.0161 35.298 22.0265Z" fill="white"/>
<path d="M38.0391 22.0473C38.0314 22.0655 38.0288 22.1562 38.034 22.2469L38.0417 22.4126L38.3063 22.4204L38.5683 22.4282V23.1329C38.5683 23.6484 38.576 23.8479 38.5992 23.8713C38.63 23.9023 38.9434 23.9153 39.0153 23.8867C39.0513 23.8738 39.0564 23.7831 39.0564 23.1484V22.4282L39.3211 22.4204L39.5831 22.4126L39.5908 22.2105L39.5985 22.011H38.8252C38.1984 22.011 38.0494 22.0188 38.0391 22.0473Z" fill="white"/>
<path d="M40.7006 22.9385C40.7006 23.9981 40.6775 23.9023 40.9448 23.9023C41.1988 23.9023 41.1887 23.9179 41.1887 23.5525V23.2338L41.4918 23.226C41.7565 23.2157 41.8078 23.2079 41.9361 23.1432C42.1391 23.0447 42.2187 22.9204 42.2369 22.6846C42.2574 22.3945 42.1622 22.208 41.926 22.0809C41.826 22.0266 41.7822 22.0239 41.2608 22.0162L40.7006 22.0084V22.9385ZM41.6792 22.4488C41.7744 22.5473 41.7796 22.6768 41.6922 22.7804C41.6331 22.8478 41.6126 22.853 41.4096 22.8633L41.1887 22.8711V22.3737H41.3967C41.5921 22.3737 41.6074 22.3789 41.6792 22.4488Z" fill="white"/>
<path d="M0.598602 28.5656V32.115H1.13809V25.0162H0.598602V28.5656Z" fill="white"/>
<path d="M3.29605 30.9104V36.8044H3.83554V25.0163H3.29605V30.9104Z" fill="white"/>
<path d="M5.9935 28.5656V32.115H6.53299V25.0162H5.9935V28.5656Z" fill="white"/>
<path d="M8.69095 32.7757V40.5352H9.23044V25.0163H8.69095V32.7757Z" fill="white"/>
<path d="M11.3884 30.9104V36.8044H11.9022V25.0163H11.3884V30.9104Z" fill="white"/>
<path d="M14.0653 30.9026L14.073 36.7915L14.3376 36.7993L14.5996 36.8071V25.0163H14.0602L14.0653 30.9026Z" fill="white"/>
<path d="M16.7576 29.9647V34.9131H17.2971V25.0162H16.7576V29.9647Z" fill="white"/>
<path d="M19.455 29.0321V33.0479H19.9945V25.0164H19.455V29.0321Z" fill="white"/>
<path d="M22.1525 32.7757V40.5352H22.692V25.0163H22.1525V32.7757Z" fill="white"/>
<path d="M24.8499 28.0993V31.1824H25.3894V25.0163H24.8499V28.0993Z" fill="white"/>
<path d="M30.2448 30.9104V36.8044H30.7586V25.0163H30.2448V30.9104Z" fill="white"/>
<path d="M32.9165 26.7003V28.3843H33.456V25.0162H32.9165V26.7003Z" fill="white"/>
<path d="M35.614 29.0321V33.0479H36.1535V25.0164H35.614V29.0321Z" fill="white"/>
<path d="M38.3114 30.9104V36.8044H38.8509V25.0163H38.3114V30.9104Z" fill="white"/>
<path d="M41.0089 29.9647V34.9131H41.5484V25.0162H41.0089V29.9647Z" fill="white"/>
</g>
<defs>
<clipPath id="clip0_1_344">
<rect width="42.26" height="42.26" fill="white"/>
</clipPath>
</defs>
</svg>
