<svg width="43" height="43" viewBox="0 0 43 43" fill="none" xmlns="http://www.w3.org/2000/svg">
<g clip-path="url(#clip0_168_2771)">
<rect width="42.26" height="42.26" fill="#EFEFEF"/>
<path d="M21.9985 2.28209V2.83911H22.538V1.72507H21.9985V2.28209Z" fill="#24272A"/>
<path d="M21.9984 5.23542V7.01009H21.4846V7.68364H21.3048V8.46088H21.4846V9.73059H21.7672V10.3445C21.7672 10.684 21.7595 10.987 21.7517 11.018C21.7364 11.0725 21.7209 11.0777 21.4614 11.0829L21.1892 11.0907L21.1814 11.3549L21.1737 11.6217H21.7415V11.9404C21.7415 12.1168 21.7338 12.4042 21.7236 12.5751L21.7081 12.8912H21.1737L21.1814 13.1554L21.1892 13.4225L21.4563 13.4303L21.7236 13.4381L21.7081 13.7513C21.6979 13.9251 21.6901 14.2023 21.6901 14.3732V14.6789H21.1763V15.223H21.6901L21.6773 15.3188C21.6722 15.3733 21.6593 15.9847 21.649 16.6765L21.6336 17.9356L21.3073 18.5807L20.9837 19.2258L20.5932 19.2336C20.3773 19.2361 20.2001 19.2309 20.2001 19.2232C20.2001 19.0807 19.6529 11.8265 19.6349 11.7202C19.5552 11.2799 19.3163 10.8497 18.9747 10.5336C18.6304 10.215 18.1089 9.96379 17.626 9.88849L17.5027 9.8679V17.6065H17.2278L17.2123 14.1038C17.2021 12.1788 17.1944 9.41453 17.1944 7.96348V5.32609H17.0351C16.9452 5.32609 16.7344 5.34928 16.565 5.37795C15.2958 5.58509 14.4404 6.19662 14.1681 7.08774C13.8804 8.03617 13.6492 12.2307 13.5823 17.793L13.5643 19.2129H13.1867L13.1816 12.5207L13.1739 5.82871L12.3724 6.78471L11.5683 7.7407V9.74336L10.9003 10.4172V13.1296L10.664 13.3862L10.4251 13.6426L10.3994 17.2282L10.1887 17.3553L9.97548 17.4796V19.2414L9.79054 19.2336L9.60296 19.2258L9.59524 17.7024L9.59012 16.1816H9.94979V13.2281H9.59012L9.59524 12.1322L9.60296 11.0389L9.77767 11.031L9.94979 11.0232V7.96869H7.30371V10.6373H6.94406V13.6426H7.30371V15.793H6.94406V19.2414L6.7591 19.2336L6.57155 19.2258L6.5638 17.7671L6.55871 16.3111H5.35377L5.34614 16.5883L5.33842 16.8682H4.82463L4.81688 15.4743L4.81176 14.083H4.24659V12.1684L4.12588 12.1606L4.00253 12.153L3.99481 11.6139L3.98969 11.0777H3.11623V12.1658H2.88502V14.083H2.29415L2.28903 15.4743L2.28131 16.8682L2.02951 16.876L1.78035 16.8838V16.3111H0.580645L0.565182 16.7567C0.554956 17.0029 0.547228 17.6635 0.547228 18.2206V19.2388H0.0334272V19.5159C0.0334272 19.6714 0.02569 20.0134 0.0154642 20.2802L0 20.7673H42.1137V19.2388H41.266V18.3889L40.865 17.8578L40.4669 17.3242L40.3052 17.4978C40.2152 17.5936 40.1124 17.705 40.0765 17.749L40.0096 17.8268L40.0073 16.5729V15.3188L40.1483 15.1685C40.3488 14.9561 40.4258 14.7774 40.4132 14.5546C40.4002 14.3031 40.3232 14.2049 39.9019 13.8964C39.5755 13.6557 39.55 13.6426 39.429 13.6426C39.3058 13.6426 39.2828 13.6557 38.9462 13.9042C38.6583 14.1168 38.5788 14.1893 38.517 14.2982C38.363 14.5675 38.4323 14.8759 38.7097 15.1685C38.8356 15.3007 38.8511 15.3318 38.8511 15.4251V15.5339H37.952V13.7489L37.5409 12.6064C37.3148 11.9766 37.1298 11.4534 37.1298 11.4378C37.1298 11.4247 37.1813 11.4146 37.2404 11.4146C37.4972 11.4146 37.7541 11.2799 37.8672 11.0855C37.9212 10.9896 37.9313 10.9482 37.9212 10.8187C37.9083 10.6217 37.8465 10.5441 37.474 10.2434L37.1942 10.0154H37.0322C36.873 10.0154 36.8704 10.0154 36.634 10.2019C36.2152 10.5284 36.1537 10.6139 36.1537 10.8367C36.1537 11.0079 36.2385 11.1452 36.4183 11.2695C36.5467 11.3601 36.5878 11.3729 36.7521 11.3859C36.8524 11.3963 36.9345 11.4146 36.9322 11.4274C36.9293 11.443 36.7369 11.9586 36.503 12.5751L36.0765 13.6971V15.5339H35.2032V15.4251C35.2032 15.3293 35.2184 15.3007 35.3572 15.1556C35.6628 14.837 35.7142 14.5261 35.5138 14.2463C35.4729 14.1893 35.2854 14.0285 35.1004 13.8915C34.7792 13.6557 34.7536 13.6426 34.6327 13.6426C34.5121 13.6426 34.4862 13.6557 34.1858 13.8784C33.7181 14.2229 33.6181 14.3602 33.6411 14.6374C33.6566 14.8188 33.7414 14.9847 33.9083 15.1634L34.047 15.3137V16.5883C34.047 17.2905 34.0393 17.8656 34.0292 17.8656C34.0163 17.863 33.916 17.7464 33.8031 17.6039C33.6899 17.4614 33.5897 17.3371 33.5796 17.3319C33.5693 17.3267 33.3817 17.5599 33.1631 17.8527L32.7627 18.3812V19.2388H30.7074V18.0211H30.3991C30.0909 18.0211 30.0909 18.0211 30.1036 17.9614C30.1113 17.9304 30.4684 15.9795 30.9001 13.6296C31.3316 11.2773 31.6886 9.32881 31.6964 9.2978C31.7067 9.24856 31.6938 9.23813 31.5757 9.21494C31.3008 9.15788 31.3264 9.13729 31.2417 9.45856C30.7484 11.3213 29.9418 13.1945 29.0246 14.6012C27.8891 16.3422 26.5867 17.4667 25.0504 18.0314L24.9271 18.078V19.2388H23.5784L23.2495 18.5832L22.9233 17.9304L22.9104 17.1143C22.9027 16.6661 22.8898 16.0572 22.8821 15.7593L22.8668 15.223H23.36V14.6789H22.8796L22.8641 14.4251C22.8539 14.2878 22.8462 14.0079 22.8462 13.8031V13.4352H23.36V12.894L23.098 12.8862L22.8333 12.8784L22.8256 12.2486L22.8205 11.6217H23.36V11.0777H22.7948V10.6553C22.7948 10.4247 22.7871 10.1217 22.7769 9.98177L22.7614 9.73059H23.0774V8.46088H23.2572V7.68364H23.0774V7.01009H22.5379V3.46075H21.9984V5.23542Z" fill="#24272A"/>
<path d="M16.7166 3.75369C16.7115 3.77182 16.7089 4.02572 16.7115 4.31589L16.7192 4.847L16.9838 4.85478L17.2459 4.86255V3.72001H16.989C16.804 3.72001 16.7269 3.73037 16.7166 3.75369Z" fill="#24272A"/>
<path d="M31.6449 7.48169C31.6295 7.53091 31.4009 8.70196 31.4009 8.73564C31.4009 8.76673 31.7528 8.83927 31.7785 8.81336C31.7914 8.803 32.0431 7.57496 32.0431 7.52832C32.0431 7.51278 31.7554 7.4506 31.686 7.4506C31.6706 7.4506 31.6501 7.46614 31.6449 7.48169Z" fill="#24272A"/>
<path d="M36.77 9.10873V9.67871H37.3095V8.53876H36.77V9.10873Z" fill="#24272A"/>
<path d="M3.2959 10.171V10.741H3.83539V9.60101H3.2959V10.171Z" fill="#24272A"/>
<path d="M34.3601 12.728L34.3678 13.2928L34.6324 13.3006L34.8945 13.3083V12.1658H34.355L34.3601 12.728Z" fill="#24272A"/>
<path d="M39.1851 12.7358V13.3083L39.4497 13.3006L39.7117 13.2928L39.7194 12.728L39.7245 12.1658H39.1851V12.7358Z" fill="#24272A"/>
<path d="M0.906738 15.4173V15.9744H1.44623V14.8603H0.906738V15.4173Z" fill="#24272A"/>
<path d="M5.71094 15.4173V15.9744H6.25043V14.8603H5.71094V15.4173Z" fill="#24272A"/>
<path d="M25.0475 21.3063C24.9806 21.3736 24.9268 21.4437 24.9268 21.4591C24.9268 21.5007 25.1143 21.6639 25.2402 21.7312C25.3969 21.8141 25.7385 21.8167 25.8901 21.7338C26.0186 21.6639 26.2112 21.498 26.2112 21.4566C26.2112 21.4229 25.9775 21.182 25.9441 21.182C25.9312 21.182 25.8721 21.2286 25.8105 21.2856C25.7103 21.3789 25.6846 21.3892 25.569 21.3892C25.4534 21.3892 25.4277 21.3789 25.3274 21.2856C25.2658 21.2286 25.2067 21.182 25.1939 21.182C25.1785 21.182 25.1143 21.2389 25.0475 21.3063Z" fill="#24272A"/>
<path d="M16.3647 21.9901C16.3235 22.0212 16.321 22.1016 16.3262 22.9306L16.3339 23.8374H16.822L16.8297 23.5187L16.8373 23.2027H17.0712C17.5028 23.2027 17.7622 23.0758 17.847 22.8218C17.9524 22.5083 17.8368 22.1922 17.5644 22.0549C17.4386 21.9901 17.1868 21.9591 16.7808 21.9591C16.5239 21.9591 16.3955 21.9694 16.3647 21.9901ZM17.2946 22.3917C17.3666 22.4513 17.3974 22.5731 17.3692 22.6793C17.3383 22.7959 17.2202 22.8451 16.9941 22.8348L16.822 22.827L16.8143 22.586L16.8065 22.3477H17.0249C17.1919 22.3477 17.2536 22.358 17.2946 22.3917Z" fill="#24272A"/>
<path d="M10.9054 22.042C10.8668 22.1431 10.8695 22.3658 10.9054 22.3917C10.9233 22.4022 11.0467 22.4176 11.1777 22.4254L11.4165 22.4384L11.4141 23.1535C11.4141 23.713 11.4192 23.8736 11.4449 23.8814C11.4628 23.8892 11.5605 23.897 11.6606 23.8995C11.7891 23.9048 11.8508 23.8944 11.8714 23.8685C11.8918 23.8452 11.9022 23.6172 11.9073 23.1353L11.915 22.4384L12.4545 22.4125L12.4622 22.2233C12.4673 22.0886 12.4596 22.0342 12.4365 22.0265C12.4185 22.0187 12.0716 22.0083 11.6658 21.998L10.9259 21.9824L10.9054 22.042Z" fill="#24272A"/>
<path d="M0.33387 22.0267C0.323646 22.037 0.315918 22.4489 0.315918 22.9437C0.315918 23.607 0.323646 23.8479 0.346715 23.8713C0.377512 23.9023 0.690909 23.9153 0.762861 23.8867C0.79891 23.8738 0.804027 23.8143 0.804027 23.5086V23.1484L0.899049 23.1562C0.991584 23.164 0.999188 23.1743 1.20471 23.5111C1.32031 23.7002 1.4308 23.8661 1.44876 23.8791C1.5105 23.9179 1.89834 23.9075 1.93175 23.8661C1.95744 23.8349 1.90869 23.7391 1.68259 23.3686L1.4 22.91L1.65428 22.4904C1.79309 22.2598 1.90869 22.0551 1.90869 22.0396C1.90869 22.0189 1.83411 22.0111 1.64668 22.0162L1.38454 22.024L1.18164 22.366C0.983857 22.6976 0.973499 22.7106 0.891311 22.7106H0.806514L0.79891 22.366L0.791182 22.024L0.572817 22.0162C0.452095 22.0137 0.344095 22.0162 0.33387 22.0267Z" fill="#24272A"/>
<path d="M3.00037 22.0342C2.99264 22.0498 3.10563 22.2856 3.25216 22.5601C3.39857 22.8348 3.55271 23.1249 3.59124 23.2L3.66058 23.3425L3.59374 23.4021C3.54236 23.4461 3.49098 23.4617 3.40879 23.4617C3.27261 23.4617 3.24692 23.5032 3.25465 23.7079C3.26239 23.9048 3.27261 23.9125 3.4936 23.8919C3.82494 23.866 3.94828 23.7778 4.09993 23.4747C4.21553 23.2389 4.70876 22.0835 4.70876 22.0471C4.70876 22.0161 4.66511 22.0109 4.47243 22.0161L4.23598 22.0238L4.07162 22.4047C3.97908 22.6171 3.89952 22.7881 3.88917 22.7881C3.88157 22.7881 3.78641 22.6146 3.68116 22.4047L3.48848 22.0238L3.25216 22.0161C3.11087 22.0109 3.0106 22.0187 3.00037 22.0342Z" fill="#24272A"/>
<path d="M5.87806 22.0421C5.87295 22.0602 5.8626 22.3038 5.85749 22.581C5.84202 23.239 5.78815 23.4127 5.59036 23.4749C5.53636 23.4905 5.53125 23.5059 5.53125 23.6821C5.53125 23.9023 5.54147 23.9101 5.74699 23.8764C6.17088 23.8065 6.2916 23.5863 6.31991 22.8323L6.33537 22.4256H6.81575V23.1148C6.81575 23.5396 6.82597 23.822 6.84144 23.8532C6.86451 23.8945 6.89793 23.9023 7.05469 23.9023C7.15745 23.9023 7.25497 23.892 7.27305 23.8816C7.29612 23.8635 7.30386 23.6589 7.29874 22.9411L7.29101 22.024L6.58965 22.0162C6.04243 22.0111 5.88829 22.0162 5.87806 22.0421Z" fill="#24272A"/>
<path d="M8.60634 22.0265C8.59611 22.0368 8.58838 22.4565 8.58838 22.9592V23.8763L8.6551 23.8918C8.69114 23.9022 8.912 23.9022 9.14845 23.897C9.52344 23.8866 9.5954 23.8763 9.71362 23.8244C9.96528 23.713 10.1015 23.4747 10.0707 23.1923C10.0321 22.8167 9.80865 22.6586 9.31792 22.6586H9.07898L9.07138 22.3399L9.06364 22.0238L8.84528 22.016C8.72456 22.0135 8.61656 22.016 8.60634 22.0265ZM9.49526 23.0731C9.57993 23.1405 9.60313 23.2518 9.55424 23.3659C9.50548 23.485 9.44899 23.5135 9.24596 23.5135H9.07649V23.0213H9.2537C9.38988 23.0213 9.44388 23.0316 9.49526 23.0731Z" fill="#24272A"/>
<path d="M13.5977 22.0524C13.5977 22.073 13.7467 22.371 13.9316 22.7131L14.263 23.3374L14.2014 23.3996C14.1577 23.4436 14.1115 23.4618 14.0369 23.4618C13.8623 23.4618 13.8546 23.4721 13.8546 23.682C13.8546 23.853 13.8597 23.8736 13.9084 23.8892C13.9727 23.91 14.2733 23.8814 14.3684 23.8452C14.4736 23.8064 14.5996 23.6664 14.6895 23.4877C14.8333 23.1975 15.2932 22.1145 15.2932 22.0627C15.2932 22.0161 15.2752 22.0109 15.0671 22.0109H14.841L14.6638 22.4151L14.4891 22.8192L14.2836 22.4151L14.0807 22.0109H13.8391C13.6387 22.0109 13.5977 22.0187 13.5977 22.0524Z" fill="#24272A"/>
<path d="M18.9308 22.0499C18.9026 22.125 18.9128 23.7987 18.9411 23.8532C18.9642 23.8945 18.9976 23.9023 19.1466 23.9023C19.4189 23.9023 19.4035 23.9256 19.4035 23.5111V23.151H20.0715V23.5111C20.0715 23.8143 20.0766 23.8738 20.1125 23.8867C20.1845 23.9153 20.4978 23.9023 20.5288 23.8713C20.5647 23.8349 20.5724 22.0991 20.5364 22.0421C20.5235 22.0188 20.4568 22.011 20.3001 22.0162L20.0843 22.024L20.0766 22.366L20.0689 22.7106H19.406L19.3984 22.366L19.3907 22.024L19.1697 22.0162C18.9848 22.011 18.9436 22.0162 18.9308 22.0499Z" fill="#24272A"/>
<path d="M21.5874 22.9411C21.5874 23.765 21.5925 23.8738 21.6284 23.8867C21.6953 23.9126 22.3067 23.905 22.4866 23.8738C22.6946 23.8402 22.8513 23.7495 22.9439 23.6122C23.0028 23.5215 23.0157 23.4722 23.0209 23.2935C23.0285 23.1199 23.0209 23.0629 22.9798 22.9799C22.8668 22.7572 22.7126 22.6795 22.3324 22.6587L22.0627 22.6458L22.0549 22.3271L22.0472 22.011H21.5874V22.9411ZM22.4737 23.0862C22.5482 23.1588 22.5585 23.2935 22.4994 23.4074C22.4531 23.5007 22.4172 23.5137 22.2142 23.5137H22.0498V23.0214H22.2297C22.3889 23.0214 22.4197 23.0292 22.4737 23.0862Z" fill="#24272A"/>
<path d="M23.2467 22.0499C23.2185 22.125 23.2287 23.7987 23.257 23.8532C23.2801 23.8945 23.3135 23.9023 23.4856 23.9023C23.6244 23.9023 23.6963 23.892 23.7168 23.8661C23.7374 23.8427 23.7451 23.5733 23.74 22.9282L23.7323 22.024L23.4985 22.0162C23.3007 22.0111 23.2595 22.0162 23.2467 22.0499Z" fill="#24272A"/>
<path d="M24.711 22.0499C24.6829 22.125 24.6931 23.7987 24.7214 23.8532C24.7445 23.8945 24.7779 23.9023 24.9141 23.9023C25.004 23.9023 25.0939 23.8945 25.117 23.8867C25.1375 23.8791 25.3276 23.6303 25.5357 23.3375L25.9159 22.8039L25.9236 23.3194C25.9262 23.6459 25.9391 23.8454 25.957 23.8686C25.9904 23.905 26.3295 23.9153 26.3861 23.8816C26.4092 23.8635 26.4169 23.6589 26.4118 22.9411L26.4041 22.024H25.9725L25.5845 22.5837L25.1966 23.1459L25.1838 22.5837L25.171 22.024L24.95 22.0162C24.765 22.0111 24.7239 22.0162 24.711 22.0499Z" fill="#24272A"/>
<path d="M29.8081 22.9409C29.8081 23.7648 29.8132 23.8736 29.8492 23.8866C29.8723 23.8944 30.1703 23.9022 30.5146 23.9022H31.1414L31.1491 24.0757L31.1568 24.2519L31.3726 24.2597C31.5293 24.2649 31.5961 24.2571 31.609 24.2338C31.6449 24.1793 31.6372 23.5291 31.6013 23.4928C31.5833 23.4747 31.537 23.4617 31.4985 23.4617H31.4266L31.4214 22.7415L31.4137 22.0238H30.9513L30.9436 22.7415L30.9385 23.4617H30.2705V22.0109H29.8081V22.9409Z" fill="#24272A"/>
<path d="M32.6597 22.9436V23.8763L32.7188 23.8892C32.7496 23.897 33.0579 23.8995 33.4047 23.897L34.0341 23.8892L34.0418 23.7001L34.0495 23.5135H33.1221V23.1249L33.5408 23.1198L33.957 23.112L33.9647 22.9358L33.9724 22.7622H33.1195L33.1349 22.3892L33.546 22.3917C33.772 22.3917 33.9776 22.3814 34.0033 22.3684C34.0418 22.3477 34.0469 22.3166 34.0418 22.1844L34.0341 22.0238L33.3482 22.016L32.6597 22.0109V22.9436Z" fill="#24272A"/>
<path d="M35.2978 22.0265C35.2875 22.0368 35.2798 22.4487 35.2798 22.9436C35.2798 23.6069 35.2875 23.8477 35.3106 23.8711C35.3286 23.8892 35.4159 23.9022 35.5238 23.9022C35.6317 23.9022 35.7191 23.8892 35.7371 23.8711C35.7576 23.8504 35.7679 23.7286 35.7679 23.4955V23.1509H36.4358V23.5109C36.4358 23.9203 36.4256 23.9022 36.667 23.9022C36.9214 23.9022 36.8983 23.9955 36.8983 22.9409V22.0109H36.4358V22.7104H35.7705L35.7628 22.3658L35.755 22.0239L35.5367 22.0161C35.4159 22.0135 35.308 22.0161 35.2978 22.0265Z" fill="#24272A"/>
<path d="M38.0391 22.0473C38.0314 22.0655 38.0288 22.1562 38.0339 22.2469L38.0416 22.4126L38.3062 22.4204L38.5683 22.4282V23.1329C38.5683 23.6484 38.576 23.8479 38.5991 23.8713C38.6299 23.9023 38.9433 23.9153 39.0153 23.8867C39.0512 23.8738 39.0564 23.7831 39.0564 23.1484V22.4282L39.321 22.4204L39.583 22.4126L39.5907 22.2105L39.5984 22.011H38.8252C38.1983 22.011 38.0493 22.0188 38.0391 22.0473Z" fill="#24272A"/>
<path d="M40.7007 22.9385C40.7007 23.9981 40.6776 23.9023 40.9449 23.9023C41.199 23.9023 41.1889 23.9179 41.1889 23.5525V23.2338L41.4919 23.226C41.7566 23.2157 41.8079 23.2079 41.9363 23.1432C42.1393 23.0447 42.2188 22.9204 42.237 22.6846C42.2575 22.3945 42.1623 22.208 41.9262 22.0809C41.8261 22.0266 41.7823 22.0239 41.2609 22.0162L40.7007 22.0084V22.9385ZM41.6794 22.4488C41.7745 22.5473 41.7797 22.6768 41.6923 22.7804C41.6332 22.8478 41.6127 22.853 41.4097 22.8633L41.1889 22.8711V22.3737H41.3968C41.5922 22.3737 41.6075 22.3789 41.6794 22.4488Z" fill="#24272A"/>
<path d="M0.598633 28.5656V32.115H1.13812V25.0162H0.598633V28.5656Z" fill="#24272A"/>
<path d="M3.2959 30.9104V36.8044H3.83539V25.0163H3.2959V30.9104Z" fill="#24272A"/>
<path d="M5.99365 28.5656V32.115H6.53314V25.0162H5.99365V28.5656Z" fill="#24272A"/>
<path d="M8.69092 32.7757V40.5352H9.23041V25.0163H8.69092V32.7757Z" fill="#24272A"/>
<path d="M11.3882 30.9104V36.8044H11.902V25.0163H11.3882V30.9104Z" fill="#24272A"/>
<path d="M14.0652 30.9026L14.0729 36.7915L14.3375 36.7993L14.5995 36.8071V25.0163H14.0601L14.0652 30.9026Z" fill="#24272A"/>
<path d="M16.7578 29.9647V34.9131H17.2973V25.0162H16.7578V29.9647Z" fill="#24272A"/>
<path d="M19.4551 29.0321V33.0479H19.9946V25.0164H19.4551V29.0321Z" fill="#24272A"/>
<path d="M22.1523 32.7757V40.5352H22.6918V25.0163H22.1523V32.7757Z" fill="#24272A"/>
<path d="M24.8501 28.0993V31.1824H25.3896V25.0163H24.8501V28.0993Z" fill="#24272A"/>
<path d="M30.2446 30.9104V36.8044H30.7584V25.0163H30.2446V30.9104Z" fill="#24272A"/>
<path d="M32.9165 26.7003V28.3843H33.456V25.0162H32.9165V26.7003Z" fill="#24272A"/>
<path d="M35.6138 29.0321V33.0479H36.1533V25.0164H35.6138V29.0321Z" fill="#24272A"/>
<path d="M38.3115 30.9104V36.8044H38.851V25.0163H38.3115V30.9104Z" fill="#24272A"/>
<path d="M41.0088 29.9647V34.9131H41.5483V25.0162H41.0088V29.9647Z" fill="#24272A"/>
</g>
<defs>
<clipPath id="clip0_168_2771">
<rect width="42.26" height="42.26" fill="white"/>
</clipPath>
</defs>
</svg>
