<svg width="20" height="21" viewBox="0 0 20 21" fill="none" xmlns="http://www.w3.org/2000/svg">
<path d="M7.63411 9.80829C7.55078 9.79996 7.45078 9.79996 7.35911 9.80829C5.37578 9.74163 3.80078 8.11663 3.80078 6.11663C3.80078 4.07496 5.45078 2.41663 7.50078 2.41663C9.54245 2.41663 11.2008 4.07496 11.2008 6.11663C11.1924 8.11663 9.61745 9.74163 7.63411 9.80829Z" stroke="#CC0EF1" stroke-width="1.5" stroke-linecap="round" stroke-linejoin="round"/>
<path d="M13.6747 4.08337C15.2914 4.08337 16.5914 5.39171 16.5914 7.00004C16.5914 8.57504 15.3414 9.85837 13.7831 9.91671C13.7164 9.90837 13.6414 9.90837 13.5664 9.91671" stroke="#CC0EF1" stroke-width="1.5" stroke-linecap="round" stroke-linejoin="round"/>
<path d="M3.46758 12.8834C1.45091 14.2334 1.45091 16.4334 3.46758 17.775C5.75924 19.3084 9.51758 19.3084 11.8092 17.775C13.8259 16.425 13.8259 14.225 11.8092 12.8834C9.52591 11.3584 5.76758 11.3584 3.46758 12.8834Z" stroke="#CC0EF1" stroke-width="1.5" stroke-linecap="round" stroke-linejoin="round"/>
<path d="M15.2832 17.4166C15.8832 17.2916 16.4499 17.05 16.9165 16.6916C18.2165 15.7166 18.2165 14.1083 16.9165 13.1333C16.4582 12.7833 15.8999 12.55 15.3082 12.4166" stroke="#CC0EF1" stroke-width="1.5" stroke-linecap="round" stroke-linejoin="round"/>
</svg>
