<svg width="20" height="21" viewBox="0 0 20 21" fill="none" xmlns="http://www.w3.org/2000/svg">
<path d="M10.441 17.5166H5.17435C2.54102 17.5166 1.66602 15.7666 1.66602 14.0083V6.99161C1.66602 4.35828 2.54102 3.48328 5.17435 3.48328H10.441C13.0743 3.48328 13.9493 4.35828 13.9493 6.99161V14.0083C13.9493 16.6416 13.066 17.5166 10.441 17.5166Z" stroke="#CC0EF1" stroke-width="1.5" stroke-linecap="round" stroke-linejoin="round"/>
<path d="M16.2659 14.75L13.9492 13.125V7.86665L16.2659 6.24165C17.3992 5.44999 18.3326 5.93332 18.3326 7.32499V13.675C18.3326 15.0667 17.3992 15.55 16.2659 14.75Z" stroke="#CC0EF1" stroke-width="1.5" stroke-linecap="round" stroke-linejoin="round"/>
<path d="M9.58398 9.66663C10.2743 9.66663 10.834 9.10698 10.834 8.41663C10.834 7.72627 10.2743 7.16663 9.58398 7.16663C8.89363 7.16663 8.33398 7.72627 8.33398 8.41663C8.33398 9.10698 8.89363 9.66663 9.58398 9.66663Z" stroke="#CC0EF1" stroke-width="1.5" stroke-linecap="round" stroke-linejoin="round"/>
</svg>
